<?xml version="1.0" encoding="UTF-8" standalone="no"?><!-- Generator: Gravit.io --><svg xmlns="http://www.w3.org/2000/svg" xmlns:xlink="http://www.w3.org/1999/xlink" style="isolation:isolate" viewBox="0 0 144 432" width="144pt" height="432pt"><defs><clipPath id="_clipPath_SDO53JBle8gbMeXA4MHxHxAVzCjIfl1E"><rect width="144" height="432"/></clipPath></defs><g clip-path="url(#_clipPath_SDO53JBle8gbMeXA4MHxHxAVzCjIfl1E)"><g><path d=" M -118.787 331.566 L -95.691 299.648 L -22.62 352.523 L -45.716 384.441 L -118.787 331.566 Z  M -88 319.1 L -82.2 323.3 C -84.8 324.2 -86.6 325.3 -87.7 326.8 C -88.8 328.4 -89.2 330 -88.8 331.8 C -88.5 333.6 -87.4 335.1 -85.7 336.3 C -84.2 337.4 -82.6 338 -81 338.1 C -80.1 338.2 -78.9 338.1 -77.4 338 C -75.9 337.8 -74 337.6 -71.7 337.2 C -67.5 336.6 -64.2 336.4 -61.7 336.9 C -59.3 337.3 -56.9 338.4 -54.4 340.2 C -51 342.7 -48.9 345.7 -48 349.2 C -47.2 352.7 -47.9 355.9 -50.1 359 C -51.9 361.5 -54.2 363.2 -56.9 364 L -62.8 359.7 C -59.7 358.7 -57.6 357.3 -56.3 355.6 C -55.1 354 -54.7 352.3 -55.2 350.6 C -55.6 348.9 -56.7 347.4 -58.6 346 C -60.2 344.8 -61.9 344.1 -63.7 343.9 C -64.6 343.8 -65.6 343.8 -66.9 343.9 C -68.2 344 -69.6 344.1 -71.3 344.4 C -73.9 344.8 -76.1 345.1 -78 345.3 C -79.9 345.5 -81.4 345.5 -82.6 345.3 C -84.9 345 -87.4 343.9 -89.9 342.1 C -93.4 339.6 -95.4 336.7 -96.2 333.5 C -96.9 330.2 -96.2 327 -94 324 C -92.4 321.9 -90.4 320.3 -88 319.1 Z " fill-rule="evenodd" fill="#1e1e1e"/><path d=" M -68.334 261.793 L -45.237 229.875 L 27.834 282.75 L 4.737 314.668 L -68.334 261.793 Z  M -46 259.1 L -41.7 253.1 L 2.5 285.1 L -1.8 291.1 L -46 259.1 Z " fill-rule="evenodd" fill="#1e1e1e"/><path d=" M -43.107 227.044 L -20.011 195.126 L 53.06 248.001 L 29.964 279.919 L -43.107 227.044 Z  M -25.7 231 L -11.7 211.6 L -6.5 215.4 L -11.3 222.1 L 27.7 250.3 L 23.5 256.1 L -15.5 227.9 L -20.5 234.8 L -25.7 231 Z " fill-rule="evenodd" fill="#1e1e1e"/><path d=" M -17.799 192.079 L 5.297 160.161 L 78.368 213.036 L 55.272 244.954 L -17.799 192.079 Z  M 14.1 177.5 L 19.5 181.4 C 17.7 182.4 16.4 183.4 15.6 184.4 C 14.6 185.8 14 187.3 14 188.8 C 14 190.3 14.4 191.9 15.4 193.6 C 16.4 195.3 17.9 197.1 19.9 199 C 21.9 200.9 24.4 203 27.4 205.2 C 38.3 213.1 45.8 214.3 49.8 208.7 C 50.5 207.7 51 206.3 51.4 204.5 L 56.9 208.5 C 56.7 210.5 55.9 212.4 54.6 214.2 C 48.1 223.2 37.6 222.3 23 211.8 C 15.1 206.1 10 200.7 7.7 195.8 C 5.4 190.8 5.9 186.1 9.2 181.6 C 10.5 179.8 12.1 178.5 14.1 177.5 Z " fill-rule="evenodd" fill="#1e1e1e"/><path d=" M 7.302 157.262 L 30.398 125.344 L 103.469 178.219 L 80.373 210.137 L 7.302 157.262 Z  M 24.2 162.1 L 28.5 156.1 L 45.8 168.6 L 52.1 159.9 L 34.8 147.4 L 39.1 141.4 L 83.3 173.4 L 79 179.4 L 57.1 163.6 L 50.8 172.3 L 72.7 188.1 L 68.4 194.1 L 24.2 162.1 Z " fill-rule="evenodd" fill="#1e1e1e"/><path d=" M 32.587 122.431 L 55.684 90.513 L 128.755 143.388 L 105.658 175.306 L 32.587 122.431 Z  M 74.1 134.1 C 75.8 131.8 76.4 129.8 76 128.1 C 75.5 126.4 73.9 124.5 71 122.5 C 66.2 119 62.6 119 60.1 122.5 L 59.8 123 L 59.6 123.3 C 59.5 123.5 59.4 123.6 59.4 123.6 L 74.1 134.1 L 74.1 134.1 Z  M 93.7 148.3 C 95.5 145.9 96.2 143.8 95.8 142.1 C 95.4 140.4 93.9 138.6 91.1 136.6 C 88.3 134.6 85.9 133.6 84.1 133.8 C 82.3 133.9 80.5 135.2 78.8 137.6 L 93.7 148.3 L 93.7 148.3 Z  M 50.6 125.6 L 56.4 117.5 C 61 111.2 67.2 110.9 75 116.5 C 78 118.7 79.9 120.7 80.8 122.6 C 81.7 124.5 81.7 126.7 80.9 129.3 C 83.6 127.6 86 126.9 88.1 127.1 C 90.2 127.3 92.8 128.4 95.7 130.6 C 103.8 136.5 105.4 142.9 100.3 149.8 L 94.7 157.6 L 50.6 125.6 L 50.6 125.6 Z " fill-rule="evenodd" fill="#1e1e1e"/><path d=" M 57.828 87.592 L 80.924 55.674 L 153.995 108.549 L 130.899 140.467 L 57.828 87.592 Z  M 109.6 94.2 C 101.9 88.7 96.6 85.3 93.6 84.2 C 90.6 83.1 88.3 83.6 86.8 85.7 C 85.3 87.8 85.4 90.1 87.2 92.4 C 89 94.8 93.5 98.5 100.5 103.6 C 107 108.3 111.7 111.2 114.7 112.2 C 117.6 113.2 119.8 112.6 121.3 110.6 C 122.8 108.6 122.6 106.4 121 104.1 C 119.3 101.7 115.6 98.4 109.6 94.2 L 109.6 94.2 Z  M 113.5 87.5 C 121.3 93.1 126.2 98 128.2 102.1 C 130.2 106.2 129.8 110.3 126.8 114.4 C 123.7 118.7 119.7 120.4 114.9 119.6 C 110.2 118.8 103.4 115.3 94.6 108.9 C 86.7 103.2 81.8 98.3 79.8 94.2 C 77.8 90.1 78.3 86 81.3 81.8 C 84 78.1 87.2 76.3 91.1 76.3 C 93.7 76.3 96.7 77.2 100.2 79 C 103.5 80.6 108 83.4 113.5 87.5 L 113.5 87.5 Z " fill-rule="evenodd" fill="#1e1e1e"/><path d=" M 83.122 52.717 L 106.218 20.799 L 179.289 73.674 L 156.193 105.592 L 83.122 52.717 Z  M 140.6 66.4 L 132.6 62.6 C 127.2 60 121.5 57 115.7 53.6 C 118.2 55.8 120.6 58.1 123 60.5 C 125.4 62.9 127.9 65.5 130.6 68.3 L 135.5 73.5 L 140.6 66.4 L 140.6 66.4 Z  M 105.5 49.7 L 108.9 45.1 L 160 67.5 L 155.7 73.4 L 145.9 68.8 L 139.6 77.6 L 147 85.5 L 142.9 91.2 L 105.5 49.7 L 105.5 49.7 Z " fill-rule="evenodd" fill="#1e1e1e"/><path d=" M 108.282 17.819 L 131.378 -14.099 L 204.449 38.776 L 181.353 70.694 L 108.282 17.819 Z  M 149.7 29.8 C 151.4 27.5 152 25.5 151.6 23.7 C 151.2 22 149.8 20.2 147.2 18.4 C 145.8 17.4 144.6 16.7 143.5 16.2 C 142.4 15.7 141.4 15.4 140.4 15.4 C 139.5 15.4 138.6 15.6 137.9 16.1 C 137.1 16.6 136.4 17.3 135.7 18.2 L 135 19.2 L 149.7 29.8 L 149.7 29.8 Z  M 125.9 21.6 L 131.6 13.8 C 133.9 10.6 136.5 8.7 139.2 8.2 C 142.7 7.6 146.4 8.9 150.6 11.8 C 153.8 14.1 155.9 16.5 157.1 18.9 C 158.2 21.3 158.3 23.7 157.4 26 L 184.8 33.4 L 180.4 39.4 L 152.7 32 L 174.3 47.7 L 170 53.7 L 125.9 21.6 L 125.9 21.6 Z " fill-rule="evenodd" fill="#1e1e1e"/><path d=" M 133.522 -17.021 L 156.619 -48.939 L 229.69 3.937 L 206.593 35.855 L 133.522 -17.021 Z  M 193.4 10.4 C 196 6.8 196.7 3.6 195.4 0.7 C 194.1 -2.1 190.3 -5.9 184 -10.5 C 177.2 -15.4 172.1 -18.2 168.6 -18.9 C 165.2 -19.5 162.3 -18.3 160 -15.1 L 159.5 -14.4 L 193.4 10.4 L 193.4 10.4 Z  M 150.1 -11.9 L 155.4 -19.2 C 157 -21.4 158.6 -23.1 160.2 -24.3 C 161.7 -25.4 163.5 -26 165.5 -26.2 C 168.5 -26.5 171.8 -26 175.2 -24.6 C 178.6 -23.2 182.9 -20.7 188.2 -16.8 C 193.1 -13.3 196.8 -10 199.3 -7 C 201.7 -4.1 203 -1.2 203.3 1.6 C 203.7 5.2 201.8 9.7 197.8 15.3 L 194.3 20.1 L 150.1 -11.9 L 150.1 -11.9 Z " fill-rule="evenodd" fill="#1e1e1e"/><g><path d=" M -142 310.5 L -136.2 302.4 L -134 304 L -136 306.8 L -119.8 318.6 L -121.5 321 L -137.7 309.2 L -139.8 312.1 L -142 310.5 Z " fill="#1e1e1e"/><path d=" M -137.1 299.9 L -135.5 297.6 L -126.2 304.4 C -126.8 303 -126.7 301.7 -126 300.7 C -125.3 299.7 -124.4 299.3 -123.3 299.4 C -122.7 299.5 -121.7 300 -120.5 300.9 L -111.7 307.3 L -113.4 309.6 L -121.7 303.6 C -122.5 303 -123.2 302.7 -123.7 302.6 C -124.2 302.5 -124.6 302.8 -125 303.2 C -125.2 303.5 -125.3 303.7 -125.3 304 C -125.3 304.2 -125.3 304.5 -125.2 304.8 C -125.1 305.1 -124.9 305.3 -124.6 305.6 C -124.3 305.9 -123.9 306.2 -123.5 306.5 L -115.5 312.3 L -117.1 314.6 L -137.1 299.9 Z " fill="#1e1e1e"/><path d=" M -110.3 296.9 L -108.8 294.8 C -106 297.1 -105.4 299.3 -107 301.5 C -107.5 302.2 -108 302.6 -108.6 302.9 C -109.2 303.2 -109.9 303.3 -110.6 303.2 C -111.3 303.1 -112.2 302.9 -113.1 302.5 C -114 302.1 -115 301.5 -116.1 300.7 C -118.3 299.1 -119.7 297.7 -120.3 296.3 C -120.9 294.9 -120.8 293.6 -119.8 292.3 C -118 289.8 -114.9 290.2 -110.6 293.3 L -110.3 293.5 L -114.1 298.7 C -111.5 300.6 -109.8 301 -109 300 C -108.3 299.1 -108.7 298 -110.3 296.9 Z  M -113.6 294.7 C -115 293.9 -115.9 293.4 -116.5 293.3 C -117.1 293.2 -117.6 293.3 -117.9 293.8 C -118.2 294.3 -118.3 294.8 -117.9 295.3 C -117.6 295.8 -116.9 296.6 -115.7 297.6 L -113.6 294.7 Z " fill="#1e1e1e"/><path d=" M -105.9 279 L -102.6 274.5 L -101.9 275 C -98.3 277.6 -96.1 279.7 -95.3 281.2 C -94.5 282.8 -94.7 284.4 -95.9 286.1 C -97.2 287.9 -98.8 288.6 -100.8 288.3 C -102.8 288 -105.4 286.6 -108.8 284.2 C -112.7 281.4 -114.9 279.1 -115.6 277.4 C -116.2 275.8 -116 274.2 -114.9 272.6 C -114 271.4 -113.1 270.7 -112 270.4 C -110.9 270.1 -109.6 270.3 -107.9 270.9 L -108.6 273.9 C -109.2 273.7 -109.7 273.5 -110.1 273.4 C -110.5 273.3 -110.9 273.2 -111.2 273.3 C -111.8 273.3 -112.3 273.7 -112.7 274.3 C -113.3 275 -113.2 276 -112.4 277 C -111.6 278.1 -109.8 279.6 -107 281.6 C -104.2 283.6 -102.2 284.8 -101 285.2 C -99.8 285.6 -98.9 285.4 -98.3 284.5 C -97.7 283.7 -97.7 282.9 -98.1 282.1 C -98.6 281.2 -99.7 280.2 -101.3 279 L -101.8 278.6 L -102.2 278.3 L -103.8 280.5 L -105.9 279 Z " fill="#1e1e1e"/><path d=" M -98.5 263.2 L -86.2 272.1 L -87.9 274.4 L -89.5 273.3 C -89.1 274.1 -88.8 274.8 -88.8 275.3 C -88.8 275.8 -89 276.3 -89.4 276.9 C -90.1 277.9 -91.2 278.3 -92.6 278 C -94 277.7 -95.8 276.8 -98.1 275.1 C -100.2 273.6 -101.6 272.2 -102.3 271 C -103 269.8 -102.9 268.7 -102.2 267.7 C -101.5 266.8 -100.4 266.4 -99 266.6 L -100.4 265.6 L -98.5 263.2 Z  M -96.1 272.8 C -94.5 274 -93.3 274.7 -92.5 274.9 C -91.7 275.1 -91.1 275 -90.7 274.4 C -90.3 273.9 -90.4 273.3 -90.9 272.6 C -91.5 271.9 -92.5 270.9 -94 269.9 C -95.5 268.8 -96.7 268.1 -97.6 267.8 C -98.4 267.5 -99 267.7 -99.4 268.2 C -99.8 268.7 -99.8 269.4 -99.3 270 C -98.7 270.7 -97.7 271.6 -96.1 272.8 Z " fill="#1e1e1e"/><path d=" M -96.6 260.6 L -94.9 258.3 L -93.4 259.4 C -94.1 257.9 -94.1 256.7 -93.3 255.6 C -92.5 254.5 -91.3 254.1 -89.9 254.5 C -90.6 253.1 -90.6 251.8 -89.8 250.7 C -89.2 249.8 -88.5 249.3 -87.7 249.2 C -86.9 249.1 -86.1 249.3 -85.2 250 L -75.4 257.1 L -77.1 259.4 L -85.2 253.5 C -86.1 252.8 -86.8 252.5 -87.3 252.4 C -87.7 252.3 -88.1 252.5 -88.5 253 C -88.9 253.6 -89 254 -88.8 254.5 C -88.6 254.9 -88.1 255.5 -87.1 256.1 L -79 262 L -80.7 264.4 L -88.8 258.5 C -89.2 258.2 -89.6 257.9 -90 257.8 C -90.3 257.6 -90.6 257.5 -90.9 257.5 C -91.2 257.5 -91.4 257.5 -91.6 257.6 C -91.8 257.7 -92 257.9 -92.2 258.1 C -92.6 258.6 -92.7 259.1 -92.5 259.6 C -92.3 260.1 -91.8 260.6 -90.9 261.3 L -82.8 267.2 L -84.5 269.5 L -96.6 260.6 Z " fill="#1e1e1e"/><path d=" M -74.2 246.9 L -72.7 244.8 C -69.9 247.1 -69.3 249.3 -70.9 251.5 C -71.4 252.2 -71.9 252.6 -72.5 252.9 C -73.1 253.2 -73.8 253.3 -74.5 253.2 C -75.2 253.1 -76.1 252.9 -77 252.5 C -77.9 252.1 -78.9 251.5 -80 250.7 C -82.2 249.1 -83.6 247.7 -84.2 246.3 C -84.8 244.9 -84.7 243.6 -83.7 242.3 C -81.9 239.8 -78.8 240.2 -74.5 243.3 L -74.2 243.5 L -78 248.7 C -75.4 250.6 -73.7 251 -72.9 250 C -72.1 249.1 -72.6 248 -74.2 246.9 Z  M -77.4 244.7 C -78.8 243.9 -79.7 243.4 -80.3 243.3 C -80.9 243.2 -81.4 243.3 -81.7 243.8 C -82 244.3 -82.1 244.8 -81.7 245.3 C -81.4 245.8 -80.7 246.6 -79.5 247.6 L -77.4 244.7 Z " fill="#1e1e1e"/><path d=" M -64.1 228.9 C -59.9 231.9 -58.8 234.7 -60.6 237.3 C -62.5 239.9 -65.5 239.6 -69.8 236.6 C -74.1 233.5 -75.2 230.7 -73.4 228.1 C -72.9 227.4 -72.4 226.9 -71.8 226.6 C -71.2 226.3 -70.5 226.2 -69.7 226.2 C -68.9 226.3 -68.1 226.5 -67.2 226.9 C -66.2 227.5 -65.2 228.1 -64.1 228.9 Z  M -65.8 231.2 C -67.4 230 -68.6 229.3 -69.4 229.1 C -70.2 228.8 -70.8 229 -71.2 229.5 C -71.6 230 -71.6 230.7 -71.1 231.3 C -70.6 232 -69.6 232.9 -68 234 C -66.4 235.1 -65.2 235.8 -64.5 236.1 C -63.7 236.3 -63.1 236.2 -62.7 235.6 C -62.3 235.1 -62.3 234.5 -62.8 233.8 C -63.2 233.3 -64.2 232.4 -65.8 231.2 Z " fill="#1e1e1e"/><path d=" M -69.4 223.1 L -68.6 222 L -72.9 218.9 C -74.3 217.9 -75.2 217 -75.4 216.1 C -75.7 215.3 -75.4 214.3 -74.7 213.3 C -74.4 212.9 -73.9 212.4 -73.3 212 L -70.9 213.7 C -71.4 213.9 -71.7 214.2 -71.9 214.4 C -72.2 214.8 -72.3 215.1 -72.2 215.5 C -72.1 215.8 -71.8 216.2 -71.2 216.6 L -70.3 217.3 L -67 219.7 L -65.6 217.8 L -63.8 219.1 L -65.2 221 L -54.7 228.6 L -56.3 230.9 L -66.8 223.3 L -67.6 224.4 L -69.4 223.1 Z " fill="#1e1e1e"/></g><g><path d=" M 157.8 -51 L 160.1 -54.2 L 161 -53.6 L 160.2 -52.5 L 166.7 -47.8 L 166 -46.8 L 159.5 -51.5 L 158.7 -50.4 L 157.8 -51 Z " fill="#1e1e1e"/><path d=" M 160.8 -55.1 L 161.4 -55.9 L 164.9 -54.4 C 165.3 -54.2 165.8 -54 166.2 -53.8 C 166.6 -53.6 167.1 -53.4 167.5 -53.1 L 167.4 -53.2 C 167.4 -53.2 167.4 -53.2 167.3 -53.3 L 166.6 -54 L 165.9 -54.7 L 165.5 -55.2 L 163 -57.9 L 163.6 -58.8 L 171.5 -54.1 L 170.8 -53.2 L 168.2 -54.8 C 168.1 -54.9 168 -55 167.9 -55 C 167.8 -55.1 167.7 -55.1 167.7 -55.2 L 166.7 -55.9 L 165.8 -56.5 L 165.8 -56.5 C 165.8 -56.5 165.8 -56.5 165.7 -56.6 L 165.8 -56.5 C 166 -56.3 166.1 -56.2 166.2 -56.1 C 166.3 -56 166.4 -55.9 166.5 -55.8 L 167.1 -55.2 L 167.3 -55 L 170.1 -52.1 L 169.6 -51.4 L 166.4 -52.8 C 166 -53 165.6 -53.2 165.1 -53.4 C 164.7 -53.6 164.2 -53.8 163.8 -54.1 L 168.7 -50.1 L 168 -49.2 L 160.8 -55.1 Z " fill="#1e1e1e"/></g><path d=" M -93.493 296.691 L -70.397 264.773 L 2.674 317.648 L -20.422 349.566 L -93.493 296.691 Z  M -61.9 283.9 C -61.9 283.9 -37.1 304.1 -35.8 305.2 L -31.3 308.6 C -31.2 308.7 -31.1 308.8 -30.8 309 C -30.6 309.2 -30.3 309.5 -29.9 309.8 L -31.4 308.9 C -34.1 307.3 -36.5 305.9 -38.8 304.6 C -41.1 303.3 -43.2 302.2 -45.2 301.2 L -65 289.9 L -65.1 290 L -68.3 294.5 L -68.4 294.6 L -51.4 309.9 C -49.8 311.5 -48.1 313.2 -46.2 314.9 C -44.3 316.7 -42.2 318.6 -39.8 320.6 L -38.5 321.8 C -38.9 321.6 -39.2 321.4 -39.5 321.2 C -39.8 321 -39.9 320.9 -40.1 320.9 L -44.7 317.7 C -46.1 316.8 -73 299.6 -73 299.6 L -77.2 305.4 L -29.4 332.4 L -25.9 327.6 L -43.3 311 C -43.4 310.9 -55.6 300.5 -55.6 300.5 C -55.6 300.5 -44.2 307.7 -42 309.1 L -20.7 320 L -17.2 315.2 L -57.8 278.3 L -61.9 283.9 Z " fill-rule="evenodd" fill="#1e1e1e"/></g></g></svg>