<?xml version="1.0" encoding="UTF-8" standalone="no"?><!-- Generator: Gravit.io --><svg xmlns="http://www.w3.org/2000/svg" xmlns:xlink="http://www.w3.org/1999/xlink" style="isolation:isolate" viewBox="0 0 361.2 432" width="361.2pt" height="432pt"><defs><clipPath id="_clipPath_9AHXaRoKw5AzqmUhKQYzWDJAt0CTBp1s"><rect width="361.2" height="432"/></clipPath></defs><g clip-path="url(#_clipPath_9AHXaRoKw5AzqmUhKQYzWDJAt0CTBp1s)"><g><path d=" M 114.4 403.6 L 91.6 435.1 L 19.5 382.9 L 42.3 351.4 L 114.4 403.6 L 114.4 403.6 Z  M 43.9 375.5 C 41.7 378.5 41 381.6 41.7 384.9 C 42.4 388.1 44.5 391 47.9 393.4 C 50.4 395.2 52.8 396.3 55.2 396.6 C 56.4 396.7 57.9 396.7 59.7 396.6 C 61.5 396.4 63.7 396.1 66.3 395.7 C 68 395.4 69.4 395.3 70.6 395.2 C 71.8 395.1 72.9 395.1 73.8 395.2 C 75.6 395.4 77.2 396.1 78.8 397.2 C 80.6 398.5 81.7 400 82.2 401.7 C 82.6 403.4 82.2 405 81.1 406.6 C 79.9 408.3 77.7 409.7 74.7 410.6 L 80.5 414.8 C 83.2 414 85.4 412.4 87.2 409.9 C 89.4 406.9 90.1 403.7 89.3 400.3 C 88.5 396.8 86.4 393.9 83 391.4 C 80.5 389.6 78.1 388.5 75.8 388.1 C 73.4 387.7 70.1 387.8 66 388.4 C 63.8 388.8 61.9 389 60.4 389.2 C 58.9 389.4 57.7 389.4 56.9 389.3 C 55.3 389.2 53.7 388.6 52.2 387.5 C 50.5 386.2 49.4 384.8 49.1 383 C 48.7 381.2 49.1 379.6 50.2 378 C 51.2 376.6 53 375.4 55.6 374.6 L 49.9 370.5 C 47.4 371.8 45.4 373.4 43.9 375.5 Z " fill="rgb(255,255,255)"/><path d=" M 139.2 369.2 L 116.4 400.7 L 44.3 348.5 L 67.1 317 L 139.2 369.2 L 139.2 369.2 Z  M 75.5 335.9 C 75.5 335.9 100 355.8 101.2 356.9 L 105.7 360.2 C 105.8 360.3 105.9 360.4 106.2 360.6 C 106.4 360.8 106.7 361 107.1 361.4 L 105.6 360.5 C 103 358.9 100.5 357.5 98.3 356.3 C 96 355.1 93.9 354 92 353 L 72.4 341.8 L 72.3 341.9 L 69.1 346.3 L 69 346.4 L 85.7 361.5 C 87.2 363.1 88.9 364.7 90.8 366.5 C 92.7 368.3 94.8 370.1 97.1 372.1 L 98.4 373.3 C 98 373.1 97.7 372.9 97.4 372.7 C 97.1 372.5 97 372.4 96.9 372.4 L 92.3 369.2 C 90.9 368.3 64.3 351.3 64.3 351.3 L 60.2 357 L 107.3 383.7 L 110.7 379 L 93.9 362.6 C 93.8 362.5 81.8 352.2 81.8 352.2 C 81.8 352.2 93 359.3 95.2 360.6 L 116.2 371.3 L 119.6 366.6 L 79.5 330.2 L 75.5 335.9 L 75.5 335.9 Z " fill="rgb(255,255,255)"/><path d=" M 164.1 334.8 L 141.3 366.3 L 69.2 314.1 L 92 282.6 L 164.1 334.8 L 164.1 334.8 Z  M 134.8 342.9 L 139.1 337 L 95.5 305.4 L 91.2 311.3 L 134.8 342.9 L 134.8 342.9 Z " fill="rgb(255,255,255)"/><path d=" M 189 300.4 L 166.2 331.9 L 94.1 279.7 L 116.9 248.2 L 189 300.4 L 189 300.4 Z  M 116.4 287.4 L 121.3 280.6 L 159.8 308.4 L 164 302.6 L 125.5 274.8 L 130.3 268.2 L 125.2 264.5 L 111.4 283.6 L 116.4 287.4 L 116.4 287.4 Z " fill="rgb(255,255,255)"/><path d=" M 213.9 266 L 191.1 297.5 L 119 245.4 L 141.8 213.9 L 213.9 266 L 213.9 266 Z  M 145.7 234.8 C 142.5 239.2 142 243.9 144.2 248.8 C 146.4 253.7 151.5 259 159.3 264.6 C 173.7 275 184.1 275.8 190.5 267 C 191.8 265.2 192.5 263.4 192.7 261.4 L 187.3 257.5 C 186.9 259.3 186.4 260.7 185.7 261.6 C 181.7 267.1 174.3 266 163.6 258.2 C 160.6 256 158.1 254 156.2 252.1 C 154.2 250.2 152.8 248.4 151.8 246.7 C 150.8 245 150.4 243.4 150.4 241.9 C 150.4 240.4 151 239 152 237.6 C 152.7 236.6 154 235.6 155.8 234.6 L 150.5 230.8 C 148.5 231.9 146.9 233.2 145.7 234.8 Z " fill="rgb(255,255,255)"/><path d=" M 238.8 231.6 L 216 263.2 L 143.9 211 L 166.7 179.5 L 238.8 231.6 L 238.8 231.6 Z  M 204.1 247.2 L 208.4 241.3 L 186.8 225.7 L 193 217.1 L 214.6 232.7 L 218.9 226.8 L 175.3 195.2 L 171 201.1 L 188.1 213.4 L 181.9 222 L 164.8 209.7 L 160.5 215.6 L 204.1 247.2 L 204.1 247.2 Z " fill="rgb(255,255,255)"/><path d=" M 263.7 197.2 L 240.9 228.7 L 168.8 176.5 L 191.6 145 L 263.7 197.2 L 263.7 197.2 Z  M 230.1 211.3 L 235.7 203.6 C 240.7 196.7 239.1 190.4 231.1 184.6 C 228.2 182.5 225.7 181.3 223.6 181.2 C 221.5 181 219.1 181.7 216.5 183.4 C 217.3 180.8 217.2 178.6 216.4 176.8 C 215.6 175 213.7 173 210.7 170.8 C 203 165.2 196.8 165.5 192.3 171.7 L 186.5 179.7 L 230.1 211.3 L 230.1 211.3 Z  M 195.2 177.6 C 195.2 177.5 195.3 177.4 195.4 177.3 L 195.6 177 L 195.9 176.5 C 198.4 173.1 201.9 173.1 206.6 176.5 C 209.4 178.5 211 180.4 211.5 182.1 C 211.9 183.7 211.3 185.7 209.6 188 L 195.2 177.6 L 195.2 177.6 Z  M 214.3 191.5 C 216 189.1 217.8 187.9 219.6 187.8 C 221.4 187.6 223.7 188.6 226.5 190.6 C 229.2 192.6 230.8 194.4 231.1 196.1 C 231.5 197.8 230.8 199.8 229 202.2 L 214.3 191.5 L 214.3 191.5 Z " fill="rgb(255,255,255)"/><path d=" M 288.6 162.9 L 265.8 194.4 L 193.7 142.2 L 216.5 110.7 L 288.6 162.9 L 288.6 162.9 Z  M 235.5 133.8 C 232 132.1 229 131.2 226.5 131.2 C 222.7 131.2 219.5 133 216.9 136.6 C 213.9 140.7 213.5 144.8 215.5 148.8 C 217.5 152.8 222.4 157.6 230.1 163.3 C 238.8 169.6 245.5 173.1 250.1 173.9 C 254.8 174.7 258.7 173 261.8 168.7 C 264.7 164.7 265.2 160.6 263.2 156.6 C 261.2 152.5 256.4 147.7 248.7 142.2 C 243.1 138.1 238.7 135.3 235.5 133.8 Z  M 255.9 158.5 C 257.6 160.8 257.7 163 256.2 164.9 C 254.7 166.9 252.6 167.4 249.7 166.5 C 246.7 165.4 242 162.6 235.6 158 C 228.7 153 224.3 149.3 222.5 147 C 220.7 144.7 220.6 142.4 222.1 140.3 C 223.6 138.2 225.9 137.7 228.8 138.8 C 231.8 139.9 237 143.2 244.6 148.7 C 250.6 152.9 254.3 156.2 255.9 158.5 Z " fill="rgb(255,255,255)"/><path d=" M 313.4 128.5 L 290.6 160 L 218.5 107.8 L 241.3 76.3 L 313.4 128.5 L 313.4 128.5 Z  M 277.4 145.8 L 281.5 140.2 L 274.2 132.4 L 280.5 123.8 L 290.2 128.3 L 294.4 122.5 L 244 100.2 L 240.7 104.8 L 277.4 145.8 L 277.4 145.8 Z  M 270.3 128.3 L 265.5 123.2 C 262.9 120.5 260.4 117.9 258 115.6 C 255.6 113.2 253.2 111 250.8 108.8 C 256.6 112.1 262.1 115.1 267.5 117.6 L 275.4 121.3 L 270.3 128.3 L 270.3 128.3 Z " fill="rgb(255,255,255)"/><path d=" M 338.3 94.1 L 315.5 125.6 L 243.4 73.4 L 266.2 41.9 L 338.3 94.1 L 338.3 94.1 Z  M 304.3 108.7 L 308.6 102.8 L 287.2 87.3 L 314.3 94.8 L 318.6 88.8 L 291.6 81.5 C 292.6 79.2 292.5 76.9 291.3 74.5 C 290.2 72.1 288 69.7 284.9 67.5 C 280.8 64.6 277.1 63.4 273.7 63.9 C 271 64.4 268.6 66.2 266.2 69.4 L 260.6 77.1 L 304.3 108.7 L 304.3 108.7 Z  M 269.8 74.7 L 270.5 73.7 C 271.2 72.8 271.9 72.1 272.7 71.6 C 273.5 71.1 274.3 70.9 275.2 70.9 C 276.1 70.9 277.1 71.2 278.2 71.7 C 279.3 72.2 280.5 72.9 281.9 73.9 C 284.4 75.7 285.8 77.5 286.2 79.2 C 286.6 80.9 285.9 82.9 284.3 85.2 L 269.8 74.7 L 269.8 74.7 Z " fill="rgb(255,255,255)"/><path d=" M 363.2 59.7 L 340.4 91.2 L 268.3 39 L 291.1 7.5 L 363.2 59.7 L 363.2 59.7 Z  M 328.3 75.6 L 331.7 70.9 C 335.7 65.4 337.5 60.9 337.1 57.4 C 336.8 54.6 335.5 51.7 333.2 48.9 C 330.7 45.9 327.1 42.7 322.3 39.2 C 317.1 35.4 312.8 32.9 309.5 31.5 C 306.1 30.1 302.9 29.6 299.9 29.9 C 297.9 30.1 296.2 30.8 294.7 31.8 C 293.1 33 291.5 34.6 289.9 36.8 L 284.7 44 L 328.3 75.6 L 328.3 75.6 Z  M 293.8 41.8 L 294.3 41.1 C 296.6 37.9 299.4 36.7 302.8 37.3 C 306.2 37.9 311.2 40.7 318 45.6 C 324.3 50.1 328 53.8 329.3 56.6 C 330.6 59.4 329.9 62.5 327.4 66.1 L 293.8 41.8 L 293.8 41.8 Z " fill="rgb(255,255,255)"/><g><path d=" M -3.5 362.2 L 2.3 354.2 L 4.4 355.7 L 2.4 358.4 L 18.4 370 L 16.7 372.4 L 0.7 360.8 L -1.3 363.6 L -3.5 362.2 L -3.5 362.2 Z " fill="rgb(255,255,255)"/><path d=" M 1.4 351.6 L 3 349.4 L 12.2 356.1 C 11.6 354.7 11.7 353.5 12.4 352.4 C 13.1 351.4 14 351 15.1 351.1 C 15.7 351.2 16.6 351.7 17.9 352.6 L 26.6 358.9 L 25 361.1 L 16.9 355.2 C 16.1 354.6 15.4 354.3 14.9 354.2 C 14.4 354.1 14 354.4 13.6 354.8 C 13.4 355.1 13.3 355.3 13.3 355.6 C 13.3 355.8 13.3 356.1 13.4 356.3 C 13.5 356.6 13.7 356.8 14 357.1 C 14.3 357.4 14.7 357.7 15.1 358 L 23 363.7 L 21.4 365.9 L 1.4 351.6 L 1.4 351.6 Z " fill="rgb(255,255,255)"/><path d=" M 27.7 348.7 L 29.2 346.6 C 31.9 348.8 32.5 351.1 30.9 353.2 C 30.4 353.8 29.9 354.3 29.3 354.6 C 28.7 354.9 28.1 355 27.3 354.9 C 26.6 354.8 25.8 354.6 24.9 354.2 C 24 353.8 23 353.2 21.9 352.4 C 19.7 350.8 18.4 349.4 17.8 348 C 17.2 346.7 17.4 345.3 18.3 344.1 C 20.1 341.7 23.1 342 27.4 345.1 L 27.7 345.3 L 24 350.4 C 26.6 352.3 28.3 352.7 29 351.7 C 29.7 350.9 29.3 349.8 27.7 348.7 Z  M 24.5 346.5 C 23.2 345.7 22.2 345.2 21.7 345.1 C 21.1 345 20.6 345.1 20.3 345.6 C 20 346.1 19.9 346.6 20.3 347.1 C 20.6 347.6 21.3 348.3 22.5 349.4 L 24.5 346.5 L 24.5 346.5 Z " fill="rgb(255,255,255)"/><path d=" M 32.2 331.1 L 35.4 326.7 L 36.1 327.2 C 39.6 329.8 41.8 331.8 42.6 333.3 C 43.4 334.8 43.2 336.4 42 338.1 C 40.7 339.8 39.1 340.6 37.2 340.3 C 35.3 340 32.6 338.7 29.3 336.2 C 25.5 333.4 23.2 331.2 22.6 329.5 C 22 327.9 22.2 326.3 23.3 324.7 C 24.2 323.5 25.1 322.8 26.2 322.5 C 27.3 322.2 28.6 322.4 30.2 323 L 29.5 326 C 28.9 325.8 28.5 325.6 28 325.5 C 27.6 325.4 27.2 325.3 26.9 325.4 C 26.3 325.4 25.8 325.7 25.4 326.3 C 24.8 327.1 24.9 328 25.7 329.1 C 26.5 330.2 28.3 331.7 31 333.6 C 33.8 335.6 35.7 336.8 36.9 337.2 C 38.1 337.6 39 337.4 39.6 336.5 C 40.2 335.7 40.2 334.9 39.8 334.1 C 39.3 333.2 38.2 332.2 36.6 331 L 36.1 330.6 L 35.7 330.3 L 34.2 332.4 L 32.2 331.1 L 32.2 331.1 Z " fill="rgb(255,255,255)"/><path d=" M 39.4 315.5 L 51.6 324.3 L 50 326.5 L 48.4 325.4 C 48.8 326.2 49.1 326.9 49.1 327.4 C 49.1 327.9 48.9 328.4 48.6 328.9 C 47.9 329.9 46.8 330.3 45.4 330 C 44 329.7 42.2 328.8 40 327.2 C 37.9 325.7 36.5 324.3 35.9 323.1 C 35.2 321.9 35.3 320.8 36 319.8 C 36.7 318.9 37.7 318.5 39.2 318.7 L 37.8 317.7 L 39.4 315.5 L 39.4 315.5 Z  M 41.8 324.9 C 43.4 326.1 44.6 326.8 45.4 327 C 46.2 327.2 46.8 327.1 47.2 326.5 C 47.6 326 47.5 325.4 47 324.7 C 46.5 324 45.5 323.1 44 322 C 42.5 320.9 41.4 320.3 40.5 320 C 39.7 319.7 39.1 319.9 38.7 320.4 C 38.3 320.9 38.4 321.5 38.8 322.2 C 39.2 322.9 40.2 323.8 41.8 324.9 Z " fill="rgb(255,255,255)"/><path d=" M 41.3 312.9 L 42.9 310.7 L 44.4 311.8 C 43.7 310.4 43.7 309.1 44.5 308.1 C 45.3 307 46.4 306.6 47.9 307.1 C 47.2 305.7 47.2 304.4 48 303.3 C 48.6 302.4 49.3 302 50.1 301.8 C 50.9 301.7 51.7 301.9 52.6 302.6 L 62.3 309.6 L 60.7 311.9 L 52.7 306.1 C 51.8 305.4 51.1 305.1 50.7 305 C 50.3 304.9 49.9 305.1 49.5 305.6 C 49.1 306.1 49 306.6 49.2 307.1 C 49.4 307.5 49.9 308.1 50.8 308.7 L 58.8 314.5 L 57.1 316.8 L 49.1 311 C 48.7 310.7 48.3 310.4 48 310.3 C 47.7 310.1 47.4 310 47.1 310 C 46.8 310 46.6 310 46.4 310.1 C 46.2 310.2 46 310.4 45.8 310.6 C 45.4 311.1 45.3 311.6 45.5 312.1 C 45.7 312.6 46.2 313.1 47.1 313.7 L 55.1 319.5 L 53.5 321.7 L 41.3 312.9 L 41.3 312.9 Z " fill="rgb(255,255,255)"/><path d=" M 63.4 299.3 L 64.9 297.2 C 67.6 299.4 68.2 301.6 66.6 303.8 C 66.1 304.5 65.6 304.9 65 305.2 C 64.4 305.5 63.8 305.6 63 305.5 C 62.3 305.4 61.5 305.2 60.6 304.8 C 59.7 304.4 58.7 303.8 57.6 303 C 55.5 301.4 54.1 300 53.5 298.6 C 52.9 297.3 53.1 295.9 54 294.7 C 55.8 292.3 58.8 292.6 63.1 295.7 L 63.4 295.9 L 59.7 301 C 62.3 302.9 64 303.3 64.7 302.3 C 65.5 301.5 65 300.5 63.4 299.3 Z  M 60.2 297.2 C 58.9 296.4 57.9 295.9 57.4 295.8 C 56.8 295.7 56.3 295.8 56 296.3 C 55.7 296.8 55.6 297.3 56 297.8 C 56.3 298.3 57 299 58.2 300.1 L 60.2 297.2 L 60.2 297.2 Z " fill="rgb(255,255,255)"/><path d=" M 73.4 281.6 C 77.5 284.6 78.7 287.3 76.8 289.9 C 75 292.5 71.9 292.2 67.8 289.2 C 63.6 286.2 62.4 283.4 64.3 280.8 C 64.8 280.1 65.3 279.7 65.9 279.4 C 66.5 279.1 67.2 279 67.9 279 C 68.7 279.1 69.5 279.3 70.4 279.7 C 71.3 280.2 72.3 280.8 73.4 281.6 Z  M 71.6 283.9 C 70 282.7 68.8 282 68 281.8 C 67.2 281.6 66.6 281.7 66.2 282.2 C 65.8 282.7 65.9 283.3 66.3 284 C 66.8 284.7 67.8 285.6 69.4 286.7 C 71 287.8 72.1 288.5 72.9 288.8 C 73.7 289 74.3 288.9 74.7 288.3 C 75.1 287.8 75 287.2 74.6 286.5 C 74.2 285.9 73.2 285 71.6 283.9 Z " fill="rgb(255,255,255)"/><path d=" M 68.1 275.9 L 68.9 274.8 L 64.7 271.7 C 63.3 270.7 62.5 269.8 62.2 269 C 61.9 268.2 62.2 267.3 62.9 266.2 C 63.2 265.8 63.7 265.3 64.3 264.9 L 66.7 266.6 C 66.2 266.8 65.9 267.1 65.7 267.3 C 65.4 267.7 65.3 268 65.4 268.4 C 65.5 268.7 65.8 269.1 66.4 269.5 L 67.3 270.2 L 70.5 272.5 L 71.9 270.6 L 73.7 271.9 L 72.3 273.8 L 82.7 281.3 L 81.1 283.5 L 70.7 276 L 69.9 277.1 L 68.1 275.9 L 68.1 275.9 Z " fill="rgb(255,255,255)"/></g><g><path d=" M 292.2 5.5 L 294.5 2.3 L 295.4 2.9 L 294.6 4 L 301 8.6 L 300.3 9.6 L 293.9 5 L 293.1 6.1 L 292.2 5.5 L 292.2 5.5 Z " fill="rgb(255,255,255)"/><path d=" M 295.2 1.5 L 295.8 0.7 L 299.2 2.2 C 299.6 2.4 300 2.6 300.5 2.8 C 300.9 3 301.3 3.2 301.8 3.5 C 301.8 3.5 301.7 3.4 301.7 3.4 C 301.7 3.4 301.7 3.4 301.6 3.3 L 300.9 2.6 L 300.2 1.9 L 299.8 1.4 L 297.3 -1.3 L 297.9 -2.1 L 305.7 2.5 L 305 3.4 L 302.4 1.8 C 302.3 1.7 302.2 1.6 302.1 1.6 C 302 1.5 301.9 1.5 301.9 1.4 L 300.9 0.7 L 299.9 0 C 299.9 0 299.9 0 299.9 0 C 299.9 0 299.9 0 299.8 -0.1 L 299.9 0 C 300.1 0.2 300.2 0.3 300.3 0.4 C 300.4 0.5 300.5 0.6 300.6 0.7 L 301.2 1.3 L 301.4 1.5 L 304.1 4.4 L 303.6 5.1 L 300.4 3.7 C 300 3.5 299.6 3.3 299.1 3.1 C 298.7 2.9 298.3 2.7 297.8 2.4 L 302.6 6.3 L 302 7.3 L 295.2 1.5 L 295.2 1.5 Z " fill="rgb(255,255,255)"/></g></g></g></svg>