<?xml version="1.0" encoding="UTF-8" standalone="no"?><!-- Generator: Gravit.io --><svg xmlns="http://www.w3.org/2000/svg" xmlns:xlink="http://www.w3.org/1999/xlink" style="isolation:isolate" viewBox="0 0 144 432" width="144pt" height="432pt"><defs><clipPath id="_clipPath_ufgD3uiU5lO4OvuV6hKGiT1nG8jiNUcc"><rect width="144" height="432"/></clipPath></defs><g clip-path="url(#_clipPath_ufgD3uiU5lO4OvuV6hKGiT1nG8jiNUcc)"><g><path d=" M -63.196 373.125 L -40.1 341.207 L 32.971 394.082 L 9.875 426 L -63.196 373.125 Z  M -32.409 360.659 L -26.609 364.859 C -29.209 365.759 -31.009 366.859 -32.109 368.359 C -33.209 369.959 -33.609 371.559 -33.209 373.359 C -32.909 375.159 -31.809 376.659 -30.109 377.859 C -28.609 378.959 -27.009 379.559 -25.409 379.659 C -24.509 379.759 -23.309 379.659 -21.809 379.559 C -20.309 379.359 -18.409 379.159 -16.109 378.759 C -11.909 378.159 -8.609 377.959 -6.109 378.459 C -3.709 378.859 -1.309 379.959 1.191 381.759 C 4.591 384.259 6.691 387.259 7.591 390.759 C 8.391 394.259 7.691 397.459 5.491 400.559 C 3.691 403.059 1.391 404.759 -1.309 405.559 L -7.209 401.259 C -4.109 400.259 -2.009 398.859 -0.709 397.159 C 0.491 395.559 0.891 393.859 0.391 392.159 C -0.009 390.459 -1.109 388.959 -3.009 387.559 C -4.609 386.359 -6.309 385.659 -8.109 385.459 C -9.009 385.359 -10.009 385.359 -11.309 385.459 C -12.609 385.559 -14.009 385.659 -15.709 385.959 C -18.309 386.359 -20.509 386.659 -22.409 386.859 C -24.309 387.059 -25.809 387.059 -27.009 386.859 C -29.309 386.559 -31.809 385.459 -34.309 383.659 C -37.809 381.159 -39.809 378.259 -40.609 375.059 C -41.309 371.759 -40.609 368.559 -38.409 365.559 C -36.809 363.459 -34.809 361.859 -32.409 360.659 Z " fill-rule="evenodd" fill="rgb(255,255,255)"/><path d=" M -12.743 303.352 L 10.354 271.434 L 83.425 324.309 L 60.328 356.227 L -12.743 303.352 Z  M 9.591 300.659 L 13.891 294.659 L 58.091 326.659 L 53.791 332.659 L 9.591 300.659 Z " fill-rule="evenodd" fill="rgb(255,255,255)"/><path d=" M 12.484 268.603 L 35.58 236.685 L 108.651 289.56 L 85.555 321.478 L 12.484 268.603 Z  M 29.891 272.559 L 43.891 253.159 L 49.091 256.959 L 44.291 263.659 L 83.291 291.859 L 79.091 297.659 L 40.091 269.459 L 35.091 276.359 L 29.891 272.559 Z " fill-rule="evenodd" fill="rgb(255,255,255)"/><path d=" M 37.792 233.638 L 60.888 201.72 L 133.959 254.595 L 110.863 286.513 L 37.792 233.638 Z  M 69.691 219.059 L 75.091 222.959 C 73.291 223.959 71.991 224.959 71.191 225.959 C 70.191 227.359 69.591 228.859 69.591 230.359 C 69.591 231.859 69.991 233.459 70.991 235.159 C 71.991 236.859 73.491 238.659 75.491 240.559 C 77.491 242.459 79.991 244.559 82.991 246.759 C 93.891 254.659 101.391 255.859 105.391 250.259 C 106.091 249.259 106.591 247.859 106.991 246.059 L 112.491 250.059 C 112.291 252.059 111.491 253.959 110.191 255.759 C 103.691 264.759 93.191 263.859 78.591 253.359 C 70.691 247.659 65.591 242.259 63.291 237.359 C 60.991 232.359 61.491 227.659 64.791 223.159 C 66.091 221.359 67.691 220.059 69.691 219.059 Z " fill-rule="evenodd" fill="rgb(255,255,255)"/><path d=" M 62.893 198.821 L 85.989 166.903 L 159.06 219.778 L 135.964 251.696 L 62.893 198.821 Z  M 79.791 203.659 L 84.091 197.659 L 101.391 210.159 L 107.691 201.459 L 90.391 188.959 L 94.691 182.959 L 138.891 214.959 L 134.591 220.959 L 112.691 205.159 L 106.391 213.859 L 128.291 229.659 L 123.991 235.659 L 79.791 203.659 Z " fill-rule="evenodd" fill="rgb(255,255,255)"/><path d=" M 88.178 163.99 L 111.275 132.072 L 184.346 184.947 L 161.249 216.865 L 88.178 163.99 Z  M 129.691 175.659 C 131.391 173.359 131.991 171.359 131.591 169.659 C 131.091 167.959 129.491 166.059 126.591 164.059 C 121.791 160.559 118.191 160.559 115.691 164.059 L 115.391 164.559 L 115.191 164.859 C 115.091 165.059 114.991 165.159 114.991 165.159 L 129.691 175.659 L 129.691 175.659 Z  M 149.291 189.859 C 151.091 187.459 151.791 185.359 151.391 183.659 C 150.991 181.959 149.491 180.159 146.691 178.159 C 143.891 176.159 141.491 175.159 139.691 175.359 C 137.891 175.459 136.091 176.759 134.391 179.159 L 149.291 189.859 L 149.291 189.859 Z  M 106.191 167.159 L 111.991 159.059 C 116.591 152.759 122.791 152.459 130.591 158.059 C 133.591 160.259 135.491 162.259 136.391 164.159 C 137.291 166.059 137.291 168.259 136.491 170.859 C 139.191 169.159 141.591 168.459 143.691 168.659 C 145.791 168.859 148.391 169.959 151.291 172.159 C 159.391 178.059 160.991 184.459 155.891 191.359 L 150.291 199.159 L 106.191 167.159 L 106.191 167.159 Z " fill-rule="evenodd" fill="rgb(255,255,255)"/><path d=" M 113.419 129.151 L 136.515 97.233 L 209.586 150.108 L 186.49 182.026 L 113.419 129.151 Z  M 165.191 135.759 C 157.491 130.259 152.191 126.859 149.191 125.759 C 146.191 124.659 143.891 125.159 142.391 127.259 C 140.891 129.359 140.991 131.659 142.791 133.959 C 144.591 136.359 149.091 140.059 156.091 145.159 C 162.591 149.859 167.291 152.759 170.291 153.759 C 173.191 154.759 175.391 154.159 176.891 152.159 C 178.391 150.159 178.191 147.959 176.591 145.659 C 174.891 143.259 171.191 139.959 165.191 135.759 L 165.191 135.759 Z  M 169.091 129.059 C 176.891 134.659 181.791 139.559 183.791 143.659 C 185.791 147.759 185.391 151.859 182.391 155.959 C 179.291 160.259 175.291 161.959 170.491 161.159 C 165.791 160.359 158.991 156.859 150.191 150.459 C 142.291 144.759 137.391 139.859 135.391 135.759 C 133.391 131.659 133.891 127.559 136.891 123.359 C 139.591 119.659 142.791 117.859 146.691 117.859 C 149.291 117.859 152.291 118.759 155.791 120.559 C 159.091 122.159 163.591 124.959 169.091 129.059 L 169.091 129.059 Z " fill-rule="evenodd" fill="rgb(255,255,255)"/><path d=" M 138.713 94.276 L 161.809 62.358 L 234.88 115.233 L 211.784 147.151 L 138.713 94.276 Z  M 196.191 107.959 L 188.191 104.159 C 182.791 101.559 177.091 98.559 171.291 95.159 C 173.791 97.359 176.191 99.659 178.591 102.059 C 180.991 104.459 183.491 107.059 186.191 109.859 L 191.091 115.059 L 196.191 107.959 L 196.191 107.959 Z  M 161.091 91.259 L 164.491 86.659 L 215.591 109.059 L 211.291 114.959 L 201.491 110.359 L 195.191 119.159 L 202.591 127.059 L 198.491 132.759 L 161.091 91.259 L 161.091 91.259 Z " fill-rule="evenodd" fill="rgb(255,255,255)"/><path d=" M 163.873 59.378 L 186.969 27.46 L 260.04 80.335 L 236.944 112.253 L 163.873 59.378 Z  M 205.291 71.359 C 206.991 69.059 207.591 67.059 207.191 65.259 C 206.791 63.559 205.391 61.759 202.791 59.959 C 201.391 58.959 200.191 58.259 199.091 57.759 C 197.991 57.259 196.991 56.959 195.991 56.959 C 195.091 56.959 194.191 57.159 193.491 57.659 C 192.691 58.159 191.991 58.859 191.291 59.759 L 190.591 60.759 L 205.291 71.359 L 205.291 71.359 Z  M 181.491 63.159 L 187.191 55.359 C 189.491 52.159 192.091 50.259 194.791 49.759 C 198.291 49.159 201.991 50.459 206.191 53.359 C 209.391 55.659 211.491 58.059 212.691 60.459 C 213.791 62.859 213.891 65.259 212.991 67.559 L 240.391 74.959 L 235.991 80.959 L 208.291 73.559 L 229.891 89.259 L 225.591 95.259 L 181.491 63.159 L 181.491 63.159 Z " fill-rule="evenodd" fill="rgb(255,255,255)"/><path d=" M 189.113 24.538 L 212.21 -7.38 L 285.281 45.496 L 262.184 77.414 L 189.113 24.538 Z  M 248.991 51.959 C 251.591 48.359 252.291 45.159 250.991 42.259 C 249.691 39.459 245.891 35.659 239.591 31.059 C 232.791 26.159 227.691 23.359 224.191 22.659 C 220.791 22.059 217.891 23.259 215.591 26.459 L 215.091 27.159 L 248.991 51.959 L 248.991 51.959 Z  M 205.691 29.659 L 210.991 22.359 C 212.591 20.159 214.191 18.459 215.791 17.259 C 217.291 16.159 219.091 15.559 221.091 15.359 C 224.091 15.059 227.391 15.559 230.791 16.959 C 234.191 18.359 238.491 20.859 243.791 24.759 C 248.691 28.259 252.391 31.559 254.891 34.559 C 257.291 37.459 258.591 40.359 258.891 43.159 C 259.291 46.759 257.391 51.259 253.391 56.859 L 249.891 61.659 L 205.691 29.659 L 205.691 29.659 Z " fill-rule="evenodd" fill="rgb(255,255,255)"/><g><path d=" M -86.409 352.059 L -80.609 343.959 L -78.409 345.559 L -80.409 348.359 L -64.209 360.159 L -65.909 362.559 L -82.109 350.759 L -84.209 353.659 L -86.409 352.059 Z " fill="rgb(255,255,255)"/><path d=" M -81.509 341.459 L -79.909 339.159 L -70.609 345.959 C -71.209 344.559 -71.109 343.259 -70.409 342.259 C -69.709 341.259 -68.809 340.859 -67.709 340.959 C -67.109 341.059 -66.109 341.559 -64.909 342.459 L -56.109 348.859 L -57.809 351.159 L -66.109 345.159 C -66.909 344.559 -67.609 344.259 -68.109 344.159 C -68.609 344.059 -69.009 344.359 -69.409 344.759 C -69.609 345.059 -69.709 345.259 -69.709 345.559 C -69.709 345.759 -69.709 346.059 -69.609 346.359 C -69.509 346.659 -69.309 346.859 -69.009 347.159 C -68.709 347.459 -68.309 347.759 -67.909 348.059 L -59.909 353.859 L -61.509 356.159 L -81.509 341.459 Z " fill="rgb(255,255,255)"/><path d=" M -54.709 338.459 L -53.209 336.359 C -50.409 338.659 -49.809 340.859 -51.409 343.059 C -51.909 343.759 -52.409 344.159 -53.009 344.459 C -53.609 344.759 -54.309 344.859 -55.009 344.759 C -55.709 344.659 -56.609 344.459 -57.509 344.059 C -58.409 343.659 -59.409 343.059 -60.509 342.259 C -62.709 340.659 -64.109 339.259 -64.709 337.859 C -65.309 336.459 -65.209 335.159 -64.209 333.859 C -62.409 331.359 -59.309 331.759 -55.009 334.859 L -54.709 335.059 L -58.509 340.259 C -55.909 342.159 -54.209 342.559 -53.409 341.559 C -52.709 340.659 -53.109 339.559 -54.709 338.459 Z  M -58.009 336.259 C -59.409 335.459 -60.309 334.959 -60.909 334.859 C -61.509 334.759 -62.009 334.859 -62.309 335.359 C -62.609 335.859 -62.709 336.359 -62.309 336.859 C -62.009 337.359 -61.309 338.159 -60.109 339.159 L -58.009 336.259 Z " fill="rgb(255,255,255)"/><path d=" M -50.309 320.559 L -47.009 316.059 L -46.309 316.559 C -42.709 319.159 -40.509 321.259 -39.709 322.759 C -38.909 324.359 -39.109 325.959 -40.309 327.659 C -41.609 329.459 -43.209 330.159 -45.209 329.859 C -47.209 329.559 -49.809 328.159 -53.209 325.759 C -57.109 322.959 -59.309 320.659 -60.009 318.959 C -60.609 317.359 -60.409 315.759 -59.309 314.159 C -58.409 312.959 -57.509 312.259 -56.409 311.959 C -55.309 311.659 -54.009 311.859 -52.309 312.459 L -53.009 315.459 C -53.609 315.259 -54.109 315.059 -54.509 314.959 C -54.909 314.859 -55.309 314.759 -55.609 314.859 C -56.209 314.859 -56.709 315.259 -57.109 315.859 C -57.709 316.559 -57.609 317.559 -56.809 318.559 C -56.009 319.659 -54.209 321.159 -51.409 323.159 C -48.609 325.159 -46.609 326.359 -45.409 326.759 C -44.209 327.159 -43.309 326.959 -42.709 326.059 C -42.109 325.259 -42.109 324.459 -42.509 323.659 C -43.009 322.759 -44.109 321.759 -45.709 320.559 L -46.209 320.159 L -46.609 319.859 L -48.209 322.059 L -50.309 320.559 Z " fill="rgb(255,255,255)"/><path d=" M -42.909 304.759 L -30.609 313.659 L -32.309 315.959 L -33.909 314.859 C -33.509 315.659 -33.209 316.359 -33.209 316.859 C -33.209 317.359 -33.409 317.859 -33.809 318.459 C -34.509 319.459 -35.609 319.859 -37.009 319.559 C -38.409 319.259 -40.209 318.359 -42.509 316.659 C -44.609 315.159 -46.009 313.759 -46.709 312.559 C -47.409 311.359 -47.309 310.259 -46.609 309.259 C -45.909 308.359 -44.809 307.959 -43.409 308.159 L -44.809 307.159 L -42.909 304.759 Z  M -40.509 314.359 C -38.909 315.559 -37.709 316.259 -36.909 316.459 C -36.109 316.659 -35.509 316.559 -35.109 315.959 C -34.709 315.459 -34.809 314.859 -35.309 314.159 C -35.909 313.459 -36.909 312.459 -38.409 311.459 C -39.909 310.359 -41.109 309.659 -42.009 309.359 C -42.809 309.059 -43.409 309.259 -43.809 309.759 C -44.209 310.259 -44.209 310.959 -43.709 311.559 C -43.109 312.259 -42.109 313.159 -40.509 314.359 Z " fill="rgb(255,255,255)"/><path d=" M -41.009 302.159 L -39.309 299.859 L -37.809 300.959 C -38.509 299.459 -38.509 298.259 -37.709 297.159 C -36.909 296.059 -35.709 295.659 -34.309 296.059 C -35.009 294.659 -35.009 293.359 -34.209 292.259 C -33.609 291.359 -32.909 290.859 -32.109 290.759 C -31.309 290.659 -30.509 290.859 -29.609 291.559 L -19.809 298.659 L -21.509 300.959 L -29.609 295.059 C -30.509 294.359 -31.209 294.059 -31.709 293.959 C -32.109 293.859 -32.509 294.059 -32.909 294.559 C -33.309 295.159 -33.409 295.559 -33.209 296.059 C -33.009 296.459 -32.509 297.059 -31.509 297.659 L -23.409 303.559 L -25.109 305.959 L -33.209 300.059 C -33.609 299.759 -34.009 299.459 -34.409 299.359 C -34.709 299.159 -35.009 299.059 -35.309 299.059 C -35.609 299.059 -35.809 299.059 -36.009 299.159 C -36.209 299.259 -36.409 299.459 -36.609 299.659 C -37.009 300.159 -37.109 300.659 -36.909 301.159 C -36.709 301.659 -36.209 302.159 -35.309 302.859 L -27.209 308.759 L -28.909 311.059 L -41.009 302.159 Z " fill="rgb(255,255,255)"/><path d=" M -18.609 288.459 L -17.109 286.359 C -14.309 288.659 -13.709 290.859 -15.309 293.059 C -15.809 293.759 -16.309 294.159 -16.909 294.459 C -17.509 294.759 -18.209 294.859 -18.909 294.759 C -19.609 294.659 -20.509 294.459 -21.409 294.059 C -22.309 293.659 -23.309 293.059 -24.409 292.259 C -26.609 290.659 -28.009 289.259 -28.609 287.859 C -29.209 286.459 -29.109 285.159 -28.109 283.859 C -26.309 281.359 -23.209 281.759 -18.909 284.859 L -18.609 285.059 L -22.409 290.259 C -19.809 292.159 -18.109 292.559 -17.309 291.559 C -16.509 290.659 -17.009 289.559 -18.609 288.459 Z  M -21.809 286.259 C -23.209 285.459 -24.109 284.959 -24.709 284.859 C -25.309 284.759 -25.809 284.859 -26.109 285.359 C -26.409 285.859 -26.509 286.359 -26.109 286.859 C -25.809 287.359 -25.109 288.159 -23.909 289.159 L -21.809 286.259 Z " fill="rgb(255,255,255)"/><path d=" M -8.509 270.459 C -4.309 273.459 -3.209 276.259 -5.009 278.859 C -6.909 281.459 -9.909 281.159 -14.209 278.159 C -18.509 275.059 -19.609 272.259 -17.809 269.659 C -17.309 268.959 -16.809 268.459 -16.209 268.159 C -15.609 267.859 -14.909 267.759 -14.109 267.759 C -13.309 267.859 -12.509 268.059 -11.609 268.459 C -10.609 269.059 -9.609 269.659 -8.509 270.459 Z  M -10.209 272.759 C -11.809 271.559 -13.009 270.859 -13.809 270.659 C -14.609 270.359 -15.209 270.559 -15.609 271.059 C -16.009 271.559 -16.009 272.259 -15.509 272.859 C -15.009 273.559 -14.009 274.459 -12.409 275.559 C -10.809 276.659 -9.609 277.359 -8.909 277.659 C -8.109 277.859 -7.509 277.759 -7.109 277.159 C -6.709 276.659 -6.709 276.059 -7.209 275.359 C -7.609 274.859 -8.609 273.959 -10.209 272.759 Z " fill="rgb(255,255,255)"/><path d=" M -13.809 264.659 L -13.009 263.559 L -17.309 260.459 C -18.709 259.459 -19.609 258.559 -19.809 257.659 C -20.109 256.859 -19.809 255.859 -19.109 254.859 C -18.809 254.459 -18.309 253.959 -17.709 253.559 L -15.309 255.259 C -15.809 255.459 -16.109 255.759 -16.309 255.959 C -16.609 256.359 -16.709 256.659 -16.609 257.059 C -16.509 257.359 -16.209 257.759 -15.609 258.159 L -14.709 258.859 L -11.409 261.259 L -10.009 259.359 L -8.209 260.659 L -9.609 262.559 L 0.891 270.159 L -0.709 272.459 L -11.209 264.859 L -12.009 265.959 L -13.809 264.659 Z " fill="rgb(255,255,255)"/></g><g><path d=" M 213.391 -9.441 L 215.691 -12.641 L 216.591 -12.041 L 215.791 -10.941 L 222.291 -6.241 L 221.591 -5.241 L 215.091 -9.941 L 214.291 -8.841 L 213.391 -9.441 Z " fill="rgb(255,255,255)"/><path d=" M 216.391 -13.541 L 216.991 -14.341 L 220.491 -12.841 C 220.891 -12.641 221.391 -12.441 221.791 -12.241 C 222.191 -12.041 222.691 -11.841 223.091 -11.541 L 222.991 -11.641 C 222.991 -11.641 222.991 -11.641 222.891 -11.741 L 222.191 -12.441 L 221.491 -13.141 L 221.091 -13.641 L 218.591 -16.341 L 219.191 -17.241 L 227.091 -12.541 L 226.391 -11.641 L 223.791 -13.241 C 223.691 -13.341 223.591 -13.441 223.491 -13.441 C 223.391 -13.541 223.291 -13.541 223.291 -13.641 L 222.291 -14.341 L 221.391 -14.941 L 221.391 -14.941 C 221.391 -14.941 221.391 -14.941 221.291 -15.041 L 221.391 -14.941 C 221.591 -14.741 221.691 -14.641 221.791 -14.541 C 221.891 -14.441 221.991 -14.341 222.091 -14.241 L 222.691 -13.641 L 222.891 -13.441 L 225.691 -10.541 L 225.191 -9.841 L 221.991 -11.241 C 221.591 -11.441 221.191 -11.641 220.691 -11.841 C 220.291 -12.041 219.791 -12.241 219.391 -12.541 L 224.291 -8.541 L 223.591 -7.641 L 216.391 -13.541 Z " fill="rgb(255,255,255)"/></g><path d=" M -37.902 338.25 L -14.806 306.332 L 58.265 359.207 L 35.169 391.125 L -37.902 338.25 Z  M -6.309 325.459 C -6.309 325.459 18.491 345.659 19.791 346.759 L 24.291 350.159 C 24.391 350.259 24.491 350.359 24.791 350.559 C 24.991 350.759 25.291 351.059 25.691 351.359 L 24.191 350.459 C 21.491 348.859 19.091 347.459 16.791 346.159 C 14.491 344.859 12.391 343.759 10.391 342.759 L -9.409 331.459 L -9.509 331.559 L -12.709 336.059 L -12.809 336.159 L 4.191 351.459 C 5.791 353.059 7.491 354.759 9.391 356.459 C 11.291 358.259 13.391 360.159 15.791 362.159 L 17.091 363.359 C 16.691 363.159 16.391 362.959 16.091 362.759 C 15.791 362.559 15.691 362.459 15.491 362.459 L 10.891 359.259 C 9.491 358.359 -17.409 341.159 -17.409 341.159 L -21.609 346.959 L 26.191 373.959 L 29.691 369.159 L 12.291 352.559 C 12.191 352.459 -0.009 342.059 -0.009 342.059 C -0.009 342.059 11.391 349.259 13.591 350.659 L 34.891 361.559 L 38.391 356.759 L -2.209 319.859 L -6.309 325.459 Z " fill-rule="evenodd" fill="rgb(255,255,255)"/></g></g></svg>