<?xml version="1.0" encoding="utf-8"?>
<!-- Generator: Adobe Illustrator 27.7.0, SVG Export Plug-In . SVG Version: 6.00 Build 0)  -->
<svg version="1.1" id="Layer_1" xmlns="http://www.w3.org/2000/svg" xmlns:xlink="http://www.w3.org/1999/xlink" x="0px" y="0px"
	 viewBox="0 0 145.9 50.7" style="enable-background:new 0 0 145.9 50.7;" xml:space="preserve">
<style type="text/css">
	.st0{fill:#58595B;}
	.st1{fill:#52C9ED;}
	.st2{fill:#FFFFFF;}
</style>
<g>
	<rect x="2.4" y="22.2" transform="matrix(0.9907 -0.1361 0.1361 0.9907 -4.7154 1.4186)" class="st0" width="11.3" height="25.9"/>
	
		<rect x="14.6" y="20.6" transform="matrix(0.9907 -0.1361 0.1361 0.9907 -4.3726 3.0692)" class="st0" width="11.3" height="25.9"/>
	
		<rect x="26.8" y="18.9" transform="matrix(0.9907 -0.1361 0.1361 0.9907 -4.0298 4.7197)" class="st0" width="11.3" height="25.9"/>
	<rect x="39.1" y="17.2" transform="matrix(0.9907 -0.1361 0.1361 0.9907 -3.687 6.3703)" class="st0" width="11.3" height="25.9"/>
	
		<rect x="51.3" y="15.5" transform="matrix(0.9907 -0.1361 0.1361 0.9907 -3.3442 8.0209)" class="st0" width="11.3" height="25.9"/>
	
		<rect x="63.6" y="13.8" transform="matrix(0.9907 -0.1361 0.1361 0.9907 -3.0014 9.6715)" class="st0" width="11.3" height="25.9"/>
	
		<rect x="75.8" y="12.1" transform="matrix(0.9907 -0.1361 0.1361 0.9907 -2.6586 11.3221)" class="st0" width="11.3" height="25.9"/>
	
		<rect x="88.1" y="10.5" transform="matrix(0.9907 -0.1361 0.1361 0.9907 -2.3158 12.9727)" class="st0" width="11.3" height="25.9"/>
	
		<rect x="100.3" y="8.8" transform="matrix(0.9907 -0.1361 0.1361 0.9907 -1.9729 14.6233)" class="st0" width="11.3" height="25.9"/>
	
		<rect x="112.5" y="7.1" transform="matrix(0.9907 -0.1361 0.1361 0.9907 -1.6301 16.2739)" class="st0" width="11.3" height="25.9"/>
	
		<rect x="124.8" y="5.4" transform="matrix(0.9907 -0.1361 0.1361 0.9907 -1.2873 17.9244)" class="st0" width="11.3" height="25.9"/>
	<g>
		<path class="st0" d="M135,4.7l1.1-0.2l0,0.3l-0.4,0.1l0.3,2.3l-0.3,0l-0.3-2.3L135,5L135,4.7z"/>
		<path class="st0" d="M136.4,4.5l0.3,0l0.4,1c0,0.1,0.1,0.3,0.1,0.4c0,0.1,0.1,0.3,0.1,0.4c0,0,0,0,0,0c0,0,0,0,0,0l0-0.3l0-0.3
			l0-0.2l0.1-1.1l0.3,0l0.6,2.6l-0.3,0L137.8,6c0,0,0-0.1,0-0.1c0,0,0-0.1,0-0.1l-0.1-0.3l-0.1-0.3c0,0,0,0,0,0c0,0,0,0,0,0l0,0.1
			c0,0.1,0,0.1,0,0.2c0,0,0,0.1,0,0.1l0,0.2l0,0.1l-0.1,1.2l-0.2,0L137,6c0-0.1-0.1-0.3-0.1-0.4c0-0.1-0.1-0.3-0.1-0.4l0.1,1.8
			l-0.3,0L136.4,4.5z"/>
	</g>
</g>
<g>
	<rect x="3.5" y="20.3" transform="matrix(0.9902 -0.1398 0.1398 0.9902 -4.6133 1.6269)" class="st1" width="11.6" height="26.6"/>
	<rect x="16" y="18.5" transform="matrix(0.9902 -0.1398 0.1398 0.9902 -4.2413 3.3682)" class="st1" width="11.6" height="26.6"/>
	
		<rect x="28.6" y="16.8" transform="matrix(0.9902 -0.1398 0.1398 0.9902 -3.8694 5.1095)" class="st1" width="11.6" height="26.6"/>
	<rect x="41.2" y="15" transform="matrix(0.9902 -0.1398 0.1398 0.9902 -3.4974 6.8508)" class="st1" width="11.6" height="26.6"/>
	<rect x="53.8" y="13.2" transform="matrix(0.9902 -0.1398 0.1398 0.9902 -3.1254 8.592)" class="st1" width="11.6" height="26.6"/>
	
		<rect x="66.3" y="11.4" transform="matrix(0.9902 -0.1398 0.1398 0.9902 -2.7535 10.3333)" class="st1" width="11.6" height="26.6"/>
	
		<rect x="78.9" y="9.7" transform="matrix(0.9902 -0.1398 0.1398 0.9902 -2.3815 12.0746)" class="st1" width="11.6" height="26.6"/>
	
		<rect x="91.5" y="7.9" transform="matrix(0.9902 -0.1398 0.1398 0.9902 -2.0096 13.8159)" class="st1" width="11.6" height="26.6"/>
	
		<rect x="104.1" y="6.1" transform="matrix(0.9902 -0.1398 0.1398 0.9902 -1.6376 15.5572)" class="st1" width="11.6" height="26.6"/>
	
		<rect x="116.6" y="4.3" transform="matrix(0.9902 -0.1398 0.1398 0.9902 -1.2656 17.2985)" class="st1" width="11.6" height="26.6"/>
	
		<rect x="129.2" y="2.6" transform="matrix(0.9902 -0.1398 0.1398 0.9902 -0.8937 19.0398)" class="st1" width="11.6" height="26.6"/>
	<g>
		<path class="st2" d="M10.5,25.2l0.3,2.1c-0.7-0.4-1.3-0.5-1.9-0.5c-0.6,0.1-1,0.3-1.3,0.8c-0.3,0.4-0.4,1-0.3,1.6
			c0.1,0.6,0.3,1,0.6,1.4C8,30.8,8.3,31,8.6,31.3S9.4,32,10,32.4c1,0.8,1.7,1.4,2.1,2.1c0.4,0.6,0.7,1.3,0.8,2.2
			c0.2,1.2,0,2.3-0.6,3.2c-0.6,0.9-1.4,1.4-2.5,1.5c-0.9,0.1-1.7,0-2.5-0.4L7,38.9c0.8,0.5,1.6,0.6,2.2,0.5c0.6-0.1,1-0.3,1.3-0.8
			c0.3-0.4,0.4-1,0.3-1.7c-0.1-0.6-0.3-1.1-0.6-1.5C10,35.3,9.8,35,9.5,34.8c-0.3-0.3-0.6-0.5-1-0.8c-0.6-0.5-1.1-0.9-1.6-1.2
			c-0.4-0.4-0.7-0.7-0.9-1c-0.4-0.6-0.7-1.3-0.8-2.2c-0.2-1.2,0-2.3,0.6-3.1c0.5-0.8,1.4-1.3,2.5-1.5C9,24.8,9.7,24.9,10.5,25.2z"/>
	</g>
	<g>
		<path class="st2" d="M31.9,21.8l2.1-0.3l2.3,15.9l-2.1,0.3L31.9,21.8z"/>
	</g>
	<g>
		<path class="st2" d="M42,20.4l7-1l0.3,1.9l-2.4,0.3l2,14.1L46.7,36l-2-14.1l-2.5,0.3L42,20.4z"/>
	</g>
	<g>
		<path class="st2" d="M61.5,17.9l0.3,1.9c-0.6-0.2-1.1-0.3-1.4-0.2c-0.5,0.1-0.9,0.3-1.3,0.6c-0.3,0.3-0.6,0.7-0.7,1.3
			c-0.2,0.6-0.2,1.2-0.2,2.1c0,0.8,0.1,1.8,0.2,2.9c0.6,3.9,1.8,5.8,3.9,5.5c0.4,0,0.8-0.2,1.2-0.5l0.3,2c-0.5,0.4-1,0.6-1.7,0.7
			c-3.2,0.5-5.2-2-6-7.2c-0.4-2.9-0.3-5,0.3-6.5c0.6-1.5,1.7-2.4,3.3-2.6C60.3,17.6,60.9,17.7,61.5,17.9z"/>
	</g>
	<g>
		<path class="st2" d="M66.9,16.9l2.1-0.3l0.9,6.2l3.2-0.4l-0.9-6.2l2.1-0.3l2.3,15.9l-2.1,0.3l-1.1-7.9l-3.2,0.4l1.1,7.9l-2.1,0.3
			L66.9,16.9z"/>
	</g>
	<g>
		<path class="st2" d="M80,15l2.9-0.4c2.3-0.3,3.6,0.9,4,3.8c0.2,1.1,0.1,1.9-0.1,2.5c-0.2,0.6-0.7,1-1.4,1.4c0.9,0.2,1.6,0.6,2,1.1
			c0.4,0.5,0.7,1.3,0.8,2.3c0.4,2.9-0.6,4.6-3.1,4.9L82.2,31L80,15z M83,21.8c0.8-0.1,1.4-0.4,1.7-0.8c0.3-0.5,0.3-1.2,0.2-2.2
			c-0.2-1.7-1-2.5-2.2-2.3l-0.2,0l-0.1,0c-0.1,0-0.1,0-0.1,0L83,21.8z M84,28.9c0.9-0.1,1.5-0.4,1.7-0.8c0.3-0.4,0.4-1.1,0.2-2.1
			c-0.1-1-0.4-1.7-0.8-2.1c-0.4-0.4-1-0.5-1.9-0.4L84,28.9z"/>
	</g>
	<g>
		<path class="st2" d="M101,20.6c0.4,2.8,0.4,4.9-0.1,6.1c-0.5,1.3-1.4,2-2.9,2.2c-1.5,0.2-2.7-0.3-3.5-1.4
			c-0.8-1.2-1.4-3.3-1.9-6.5c-0.4-2.8-0.4-4.9,0.1-6.2c0.5-1.3,1.4-2,2.9-2.2c1.3-0.2,2.4,0.1,3.2,1c0.5,0.6,0.9,1.4,1.3,2.5
			C100.4,17.1,100.7,18.6,101,20.6z M98.8,21.1c-0.4-2.8-0.8-4.6-1.1-5.4c-0.4-0.9-0.9-1.3-1.7-1.1s-1.2,0.6-1.4,1.5
			c-0.1,0.9,0,2.6,0.3,5.1c0.3,2.3,0.7,3.9,1.1,4.8c0.4,0.8,1,1.2,1.7,1.1c0.7-0.1,1.2-0.6,1.3-1.4C99.2,24.8,99.1,23.3,98.8,21.1z"
			/>
	</g>
	<g>
		<path class="st2" d="M107.4,11.2l1.7-0.2l5.7,15.5l-2.1,0.3l-1-3l-3.2,0.4l-0.2,3.2l-2.1,0.3L107.4,11.2z M111,22.1l-0.8-2.5
			c-0.6-1.7-1.1-3.5-1.6-5.4c0,1,0.1,2,0,3c0,1,0,2.1-0.1,3.2l-0.1,2.1L111,22.1z"/>
	</g>
	<g>
		<path class="st2" d="M117.5,9.7l2.8-0.4c1.2-0.2,2.1,0,2.7,0.5c0.8,0.6,1.3,1.7,1.6,3.2c0.2,1.1,0.1,2.1-0.2,2.8
			c-0.3,0.7-0.8,1.3-1.5,1.5l4,7.3l-2.2,0.3l-4-7.4l1.1,7.8l-2.1,0.3L117.5,9.7z M120.7,16.5c0.8-0.1,1.4-0.4,1.7-0.8
			c0.3-0.4,0.4-1.1,0.2-2c-0.1-0.5-0.2-0.9-0.3-1.3s-0.3-0.6-0.5-0.8c-0.2-0.2-0.4-0.3-0.7-0.4c-0.3-0.1-0.6-0.1-0.9,0l-0.4,0.1
			L120.7,16.5z"/>
	</g>
	<g>
		<path class="st2" d="M129.6,8l2.6-0.4c0.8-0.1,1.5-0.1,2.1,0c0.5,0.1,1,0.3,1.5,0.7c0.7,0.6,1.2,1.4,1.6,2.4c0.4,1,0.7,2.4,1,4.4
			c0.2,1.8,0.3,3.2,0.2,4.4c-0.1,1.1-0.5,2-1,2.6c-0.7,0.8-2,1.4-4,1.6l-1.7,0.2L129.6,8z M133.8,21.8c1.3-0.2,2.1-0.7,2.5-1.6
			c0.3-0.9,0.4-2.4,0-4.7c-0.3-2.5-0.8-4.1-1.4-5c-0.6-0.9-1.4-1.2-2.6-1l-0.3,0L133.8,21.8z"/>
	</g>
	<g>
		<path class="st1" d="M1.3,12l2.9-0.4l0.1,0.8l-1,0.1l0.8,5.9l-0.9,0.1l-0.8-5.9l-1,0.1L1.3,12z"/>
		<path class="st1" d="M4.5,10.8l0.8-0.1l0.5,3.4c0.2-0.4,0.5-0.7,0.8-0.7c0.4-0.1,0.6,0.1,0.8,0.3c0.1,0.1,0.2,0.5,0.3,0.9l0.4,3.2
			l-0.8,0.1l-0.4-3c0-0.3-0.1-0.5-0.2-0.6c-0.1-0.1-0.2-0.2-0.4-0.1c-0.1,0-0.2,0-0.2,0.1c-0.1,0-0.1,0.1-0.1,0.2c0,0.1,0,0.2,0,0.3
			c0,0.1,0,0.3,0,0.4L6.4,18l-0.8,0.1L4.5,10.8z"/>
		<path class="st1" d="M10.6,15.9l0.8-0.1c0.1,1.1-0.3,1.6-1.1,1.8c-0.2,0-0.4,0-0.6,0c-0.2-0.1-0.3-0.2-0.5-0.4
			C9.1,17,9,16.7,8.9,16.5c-0.1-0.3-0.2-0.6-0.2-1c-0.1-0.8-0.1-1.4,0.1-1.8C8.9,13.3,9.2,13,9.7,13c0.9-0.1,1.4,0.6,1.7,2.2l0,0.1
			l-1.9,0.3c0.1,1,0.4,1.4,0.8,1.3C10.6,16.8,10.7,16.5,10.6,15.9z M10.4,14.7c-0.1-0.5-0.2-0.8-0.3-0.9c-0.1-0.2-0.2-0.2-0.4-0.2
			c-0.2,0-0.3,0.1-0.3,0.3c-0.1,0.2-0.1,0.5,0,0.9L10.4,14.7z"/>
		<path class="st1" d="M15.4,13.2L17,13l0,0.3c0.2,1.3,0.2,2.2,0,2.7c-0.2,0.5-0.5,0.8-1.2,0.9c-0.6,0.1-1.1-0.1-1.5-0.6
			c-0.3-0.5-0.6-1.3-0.8-2.5c-0.2-1.4-0.2-2.3,0-2.8c0.2-0.5,0.6-0.7,1.2-0.8c0.4-0.1,0.8,0,1.1,0.2c0.3,0.2,0.5,0.5,0.7,1l-0.8,0.5
			c-0.1-0.2-0.1-0.3-0.2-0.4c-0.1-0.1-0.1-0.2-0.2-0.3c-0.1-0.1-0.3-0.2-0.5-0.1c-0.3,0-0.5,0.3-0.5,0.6c-0.1,0.4,0,1.1,0.1,2.1
			c0.1,1,0.3,1.7,0.5,2c0.2,0.3,0.4,0.5,0.7,0.4c0.3,0,0.5-0.2,0.5-0.5c0.1-0.3,0.1-0.7,0-1.3l0-0.2l0-0.1L15.5,14L15.4,13.2z"/>
		<path class="st1" d="M20.2,11.5l0.6,4.5L20,16.1L20,15.5c-0.1,0.3-0.2,0.4-0.3,0.6c-0.1,0.1-0.3,0.2-0.4,0.2
			c-0.4,0.1-0.7-0.1-0.9-0.5c-0.2-0.4-0.4-0.9-0.5-1.7c-0.1-0.8-0.1-1.4,0-1.7s0.4-0.6,0.7-0.7c0.3,0,0.6,0.1,0.9,0.5l-0.1-0.5
			L20.2,11.5z M18.7,14c0.1,0.6,0.2,1,0.3,1.2c0.1,0.2,0.3,0.3,0.5,0.3c0.2,0,0.3-0.2,0.3-0.4c0-0.3,0-0.7,0-1.2
			c-0.1-0.5-0.2-0.9-0.3-1.2c-0.1-0.2-0.3-0.3-0.5-0.3c-0.2,0-0.3,0.2-0.4,0.4C18.6,13,18.6,13.4,18.7,14z"/>
		<path class="st1" d="M21.2,11.4l0.8-0.1l0.1,0.5c0.2-0.4,0.4-0.7,0.8-0.8c0.4-0.1,0.7,0.1,0.9,0.5c0.2-0.4,0.4-0.7,0.8-0.8
			c0.3,0,0.6,0,0.8,0.1c0.2,0.1,0.3,0.4,0.4,0.7l0.5,3.5l-0.8,0.1L25,12.4c0-0.3-0.1-0.6-0.2-0.7c-0.1-0.1-0.2-0.2-0.4-0.1
			c-0.2,0-0.3,0.1-0.4,0.2c-0.1,0.1-0.1,0.4,0,0.7l0.4,2.9l-0.9,0.1l-0.4-2.9c0-0.2,0-0.3-0.1-0.4c0-0.1-0.1-0.2-0.1-0.3
			s-0.1-0.1-0.2-0.1c-0.1,0-0.1,0-0.2,0c-0.2,0-0.3,0.1-0.4,0.3c-0.1,0.1-0.1,0.4,0,0.7l0.4,2.9l-0.8,0.1L21.2,11.4z"/>
		<path class="st1" d="M28.7,13.4l0.8-0.1c0.1,1.1-0.3,1.6-1.1,1.8c-0.2,0-0.4,0-0.6,0c-0.2-0.1-0.3-0.2-0.5-0.4
			c-0.1-0.2-0.3-0.4-0.3-0.7s-0.2-0.6-0.2-1c-0.1-0.8-0.1-1.4,0.1-1.8c0.2-0.4,0.5-0.6,0.9-0.7c0.9-0.1,1.4,0.6,1.7,2.2l0,0.1
			l-1.9,0.3c0.1,1,0.4,1.4,0.8,1.3C28.6,14.2,28.8,13.9,28.7,13.4z M28.5,12.2c-0.1-0.5-0.2-0.8-0.3-0.9c-0.1-0.2-0.2-0.2-0.4-0.2
			c-0.2,0-0.3,0.1-0.3,0.3c-0.1,0.2-0.1,0.5,0,0.9L28.5,12.2z"/>
		<path class="st1" d="M34.6,11.8c0.2,1.5-0.1,2.3-1.1,2.5c-0.9,0.1-1.5-0.6-1.7-2.1c-0.2-1.5,0.1-2.4,1.1-2.5c0.2,0,0.5,0,0.6,0.1
			c0.2,0.1,0.4,0.2,0.5,0.4c0.1,0.2,0.3,0.4,0.4,0.7C34.4,11.1,34.5,11.4,34.6,11.8z M33.7,11.9c-0.1-0.6-0.2-1-0.3-1.2
			c-0.1-0.2-0.3-0.3-0.5-0.3c-0.2,0-0.3,0.2-0.4,0.4c0,0.2,0,0.6,0.1,1.2c0.1,0.6,0.2,1,0.3,1.2c0.1,0.2,0.3,0.3,0.5,0.3
			c0.2,0,0.3-0.2,0.4-0.4C33.8,12.9,33.8,12.5,33.7,11.9z"/>
		<path class="st1" d="M34.7,9.5l0.4-0.1l-0.2-1.6c-0.1-0.5,0-0.9,0.1-1.1c0.1-0.2,0.4-0.4,0.7-0.4c0.2,0,0.4,0,0.6,0l0.1,0.9
			c-0.1-0.1-0.3-0.1-0.4-0.1c-0.1,0-0.2,0.1-0.3,0.2c0,0.1-0.1,0.2,0,0.4l0,0.3l0.2,1.2l0.7-0.1l0.1,0.7L36,10l0.5,3.8l-0.8,0.1
			l-0.5-3.8l-0.4,0.1L34.7,9.5z"/>
	</g>
	<g>
		<path class="st1" d="M139.5,1.7l1.2-0.2l0,0.3l-0.4,0.1l0.3,2.3l-0.4,0L140,1.9L139.5,2L139.5,1.7z"/>
		<path class="st1" d="M141,1.5l0.3,0l0.4,1.1c0,0.1,0.1,0.3,0.1,0.4c0,0.1,0.1,0.3,0.1,0.4c0,0,0,0,0,0c0,0,0,0,0,0l0-0.3l0-0.3
			l0-0.2l0.1-1.1l0.3,0l0.6,2.6l-0.3,0L142.4,3c0,0,0-0.1,0-0.1c0,0,0-0.1,0-0.1l-0.1-0.4l-0.1-0.3c0,0,0,0,0,0c0,0,0,0,0,0l0,0.1
			c0,0.1,0,0.1,0,0.2c0,0,0,0.1,0,0.1l0,0.2l0,0.1L142.2,4l-0.2,0l-0.4-1c0-0.1-0.1-0.3-0.1-0.4c0-0.1-0.1-0.3-0.1-0.4l0.2,1.8
			l-0.3,0L141,1.5z"/>
	</g>
	<path class="st2" d="M23.4,23.6c0,0,0.8,9.4,0.8,9.9l0.2,1.7c0,0,0,0.1,0,0.2s0,0.2,0,0.3l-0.1-0.5c-0.2-0.9-0.4-1.7-0.6-2.5
		c-0.2-0.7-0.4-1.4-0.6-2.1l-1.7-6.5l0,0l-1.6,0.2l0,0l0.2,6.7c0,0.7,0,1.4,0,2.1c0,0.8,0,1.6,0.1,2.5l0,0.5c0-0.1-0.1-0.2-0.1-0.3
		c0-0.1,0-0.1,0-0.2l-0.3-1.7c-0.1-0.5-2-9.7-2-9.7l-2.1,0.3l4,15.7l1.7-0.2l0-7c0-0.1-0.3-4.8-0.3-4.8s0.8,3.9,1,4.6l2,6.7l1.7-0.2
		l-0.5-16.2L23.4,23.6z"/>
</g>
</svg>
