<?xml version="1.0" encoding="UTF-8" standalone="no"?><!-- Generator: Gravit.io --><svg xmlns="http://www.w3.org/2000/svg" xmlns:xlink="http://www.w3.org/1999/xlink" style="isolation:isolate" viewBox="0 0 144 432" width="144pt" height="432pt"><defs><clipPath id="_clipPath_KC3m0fHPqdlbATb1HD8pKbOC2Ty10clU"><rect width="144" height="432"/></clipPath></defs><g clip-path="url(#_clipPath_KC3m0fHPqdlbATb1HD8pKbOC2Ty10clU)"><g><path d=" M -6.787 331.566 L 16.309 299.648 L 89.38 352.523 L 66.284 384.441 L -6.787 331.566 Z  M 24 319.1 L 29.8 323.3 C 27.2 324.2 25.4 325.3 24.3 326.8 C 23.2 328.4 22.8 330 23.2 331.8 C 23.5 333.6 24.6 335.1 26.3 336.3 C 27.8 337.4 29.4 338 31 338.1 C 31.9 338.2 33.1 338.1 34.6 338 C 36.1 337.8 38 337.6 40.3 337.2 C 44.5 336.6 47.8 336.4 50.3 336.9 C 52.7 337.3 55.1 338.4 57.6 340.2 C 61 342.7 63.1 345.7 64 349.2 C 64.8 352.7 64.1 355.9 61.9 359 C 60.1 361.5 57.8 363.2 55.1 364 L 49.2 359.7 C 52.3 358.7 54.4 357.3 55.7 355.6 C 56.9 354 57.3 352.3 56.8 350.6 C 56.4 348.9 55.3 347.4 53.4 346 C 51.8 344.8 50.1 344.1 48.3 343.9 C 47.4 343.8 46.4 343.8 45.1 343.9 C 43.8 344 42.4 344.1 40.7 344.4 C 38.1 344.8 35.9 345.1 34 345.3 C 32.1 345.5 30.6 345.5 29.4 345.3 C 27.1 345 24.6 343.9 22.1 342.1 C 18.6 339.6 16.6 336.7 15.8 333.5 C 15.1 330.2 15.8 327 18 324 C 19.6 321.9 21.6 320.3 24 319.1 Z " fill-rule="evenodd" fill="rgb(255,255,255)"/><path d=" M 43.666 261.793 L 66.763 229.875 L 139.834 282.75 L 116.737 314.668 L 43.666 261.793 Z  M 66 259.1 L 70.3 253.1 L 114.5 285.1 L 110.2 291.1 L 66 259.1 Z " fill-rule="evenodd" fill="rgb(255,255,255)"/><path d=" M 68.893 227.044 L 91.989 195.126 L 165.06 248.001 L 141.964 279.919 L 68.893 227.044 Z  M 86.3 231 L 100.3 211.6 L 105.5 215.4 L 100.7 222.1 L 139.7 250.3 L 135.5 256.1 L 96.5 227.9 L 91.5 234.8 L 86.3 231 Z " fill-rule="evenodd" fill="rgb(255,255,255)"/><path d=" M 94.201 192.079 L 117.297 160.161 L 190.368 213.036 L 167.272 244.954 L 94.201 192.079 Z  M 126.1 177.5 L 131.5 181.4 C 129.7 182.4 128.4 183.4 127.6 184.4 C 126.6 185.8 126 187.3 126 188.8 C 126 190.3 126.4 191.9 127.4 193.6 C 128.4 195.3 129.9 197.1 131.9 199 C 133.9 200.9 136.4 203 139.4 205.2 C 150.3 213.1 157.8 214.3 161.8 208.7 C 162.5 207.7 163 206.3 163.4 204.5 L 168.9 208.5 C 168.7 210.5 167.9 212.4 166.6 214.2 C 160.1 223.2 149.6 222.3 135 211.8 C 127.1 206.1 122 200.7 119.7 195.8 C 117.4 190.8 117.9 186.1 121.2 181.6 C 122.5 179.8 124.1 178.5 126.1 177.5 Z " fill-rule="evenodd" fill="rgb(255,255,255)"/><path d=" M 119.302 157.262 L 142.398 125.344 L 215.469 178.219 L 192.373 210.137 L 119.302 157.262 Z  M 136.2 162.1 L 140.5 156.1 L 157.8 168.6 L 164.1 159.9 L 146.8 147.4 L 151.1 141.4 L 195.3 173.4 L 191 179.4 L 169.1 163.6 L 162.8 172.3 L 184.7 188.1 L 180.4 194.1 L 136.2 162.1 Z " fill-rule="evenodd" fill="rgb(255,255,255)"/><path d=" M 144.587 122.431 L 167.684 90.513 L 240.755 143.388 L 217.658 175.306 L 144.587 122.431 Z  M 186.1 134.1 C 187.8 131.8 188.4 129.8 188 128.1 C 187.5 126.4 185.9 124.5 183 122.5 C 178.2 119 174.6 119 172.1 122.5 L 171.8 123 L 171.6 123.3 C 171.5 123.5 171.4 123.6 171.4 123.6 L 186.1 134.1 L 186.1 134.1 Z  M 205.7 148.3 C 207.5 145.9 208.2 143.8 207.8 142.1 C 207.4 140.4 205.9 138.6 203.1 136.6 C 200.3 134.6 197.9 133.6 196.1 133.8 C 194.3 133.9 192.5 135.2 190.8 137.6 L 205.7 148.3 L 205.7 148.3 Z  M 162.6 125.6 L 168.4 117.5 C 173 111.2 179.2 110.9 187 116.5 C 190 118.7 191.9 120.7 192.8 122.6 C 193.7 124.5 193.7 126.7 192.9 129.3 C 195.6 127.6 198 126.9 200.1 127.1 C 202.2 127.3 204.8 128.4 207.7 130.6 C 215.8 136.5 217.4 142.9 212.3 149.8 L 206.7 157.6 L 162.6 125.6 L 162.6 125.6 Z " fill-rule="evenodd" fill="rgb(255,255,255)"/><path d=" M 169.828 87.592 L 192.924 55.674 L 265.995 108.549 L 242.899 140.467 L 169.828 87.592 Z  M 221.6 94.2 C 213.9 88.7 208.6 85.3 205.6 84.2 C 202.6 83.1 200.3 83.6 198.8 85.7 C 197.3 87.8 197.4 90.1 199.2 92.4 C 201 94.8 205.5 98.5 212.5 103.6 C 219 108.3 223.7 111.2 226.7 112.2 C 229.6 113.2 231.8 112.6 233.3 110.6 C 234.8 108.6 234.6 106.4 233 104.1 C 231.3 101.7 227.6 98.4 221.6 94.2 L 221.6 94.2 Z  M 225.5 87.5 C 233.3 93.1 238.2 98 240.2 102.1 C 242.2 106.2 241.8 110.3 238.8 114.4 C 235.7 118.7 231.7 120.4 226.9 119.6 C 222.2 118.8 215.4 115.3 206.6 108.9 C 198.7 103.2 193.8 98.3 191.8 94.2 C 189.8 90.1 190.3 86 193.3 81.8 C 196 78.1 199.2 76.3 203.1 76.3 C 205.7 76.3 208.7 77.2 212.2 79 C 215.5 80.6 220 83.4 225.5 87.5 L 225.5 87.5 Z " fill-rule="evenodd" fill="rgb(255,255,255)"/><path d=" M 195.122 52.717 L 218.218 20.799 L 291.289 73.674 L 268.193 105.592 L 195.122 52.717 Z  M 252.6 66.4 L 244.6 62.6 C 239.2 60 233.5 57 227.7 53.6 C 230.2 55.8 232.6 58.1 235 60.5 C 237.4 62.9 239.9 65.5 242.6 68.3 L 247.5 73.5 L 252.6 66.4 L 252.6 66.4 Z  M 217.5 49.7 L 220.9 45.1 L 272 67.5 L 267.7 73.4 L 257.9 68.8 L 251.6 77.6 L 259 85.5 L 254.9 91.2 L 217.5 49.7 L 217.5 49.7 Z " fill-rule="evenodd" fill="rgb(255,255,255)"/><path d=" M 220.282 17.819 L 243.378 -14.099 L 316.449 38.776 L 293.353 70.694 L 220.282 17.819 Z  M 261.7 29.8 C 263.4 27.5 264 25.5 263.6 23.7 C 263.2 22 261.8 20.2 259.2 18.4 C 257.8 17.4 256.6 16.7 255.5 16.2 C 254.4 15.7 253.4 15.4 252.4 15.4 C 251.5 15.4 250.6 15.6 249.9 16.1 C 249.1 16.6 248.4 17.3 247.7 18.2 L 247 19.2 L 261.7 29.8 L 261.7 29.8 Z  M 237.9 21.6 L 243.6 13.8 C 245.9 10.6 248.5 8.7 251.2 8.2 C 254.7 7.6 258.4 8.9 262.6 11.8 C 265.8 14.1 267.9 16.5 269.1 18.9 C 270.2 21.3 270.3 23.7 269.4 26 L 296.8 33.4 L 292.4 39.4 L 264.7 32 L 286.3 47.7 L 282 53.7 L 237.9 21.6 L 237.9 21.6 Z " fill-rule="evenodd" fill="rgb(255,255,255)"/><path d=" M 245.522 -17.021 L 268.619 -48.939 L 341.69 3.937 L 318.593 35.855 L 245.522 -17.021 Z  M 305.4 10.4 C 308 6.8 308.7 3.6 307.4 0.7 C 306.1 -2.1 302.3 -5.9 296 -10.5 C 289.2 -15.4 284.1 -18.2 280.6 -18.9 C 277.2 -19.5 274.3 -18.3 272 -15.1 L 271.5 -14.4 L 305.4 10.4 L 305.4 10.4 Z  M 262.1 -11.9 L 267.4 -19.2 C 269 -21.4 270.6 -23.1 272.2 -24.3 C 273.7 -25.4 275.5 -26 277.5 -26.2 C 280.5 -26.5 283.8 -26 287.2 -24.6 C 290.6 -23.2 294.9 -20.7 300.2 -16.8 C 305.1 -13.3 308.8 -10 311.3 -7 C 313.7 -4.1 315 -1.2 315.3 1.6 C 315.7 5.2 313.8 9.7 309.8 15.3 L 306.3 20.1 L 262.1 -11.9 L 262.1 -11.9 Z " fill-rule="evenodd" fill="rgb(255,255,255)"/><g><path d=" M -30 310.5 L -24.2 302.4 L -22 304 L -24 306.8 L -7.8 318.6 L -9.5 321 L -25.7 309.2 L -27.8 312.1 L -30 310.5 Z " fill="rgb(255,255,255)"/><path d=" M -25.1 299.9 L -23.5 297.6 L -14.2 304.4 C -14.8 303 -14.7 301.7 -14 300.7 C -13.3 299.7 -12.4 299.3 -11.3 299.4 C -10.7 299.5 -9.7 300 -8.5 300.9 L 0.3 307.3 L -1.4 309.6 L -9.7 303.6 C -10.5 303 -11.2 302.7 -11.7 302.6 C -12.2 302.5 -12.6 302.8 -13 303.2 C -13.2 303.5 -13.3 303.7 -13.3 304 C -13.3 304.2 -13.3 304.5 -13.2 304.8 C -13.1 305.1 -12.9 305.3 -12.6 305.6 C -12.3 305.9 -11.9 306.2 -11.5 306.5 L -3.5 312.3 L -5.1 314.6 L -25.1 299.9 Z " fill="rgb(255,255,255)"/><path d=" M 1.7 296.9 L 3.2 294.8 C 6 297.1 6.6 299.3 5 301.5 C 4.5 302.2 4 302.6 3.4 302.9 C 2.8 303.2 2.1 303.3 1.4 303.2 C 0.7 303.1 -0.2 302.9 -1.1 302.5 C -2 302.1 -3 301.5 -4.1 300.7 C -6.3 299.1 -7.7 297.7 -8.3 296.3 C -8.9 294.9 -8.8 293.6 -7.8 292.3 C -6 289.8 -2.9 290.2 1.4 293.3 L 1.7 293.5 L -2.1 298.7 C 0.5 300.6 2.2 301 3 300 C 3.7 299.1 3.3 298 1.7 296.9 Z  M -1.6 294.7 C -3 293.9 -3.9 293.4 -4.5 293.3 C -5.1 293.2 -5.6 293.3 -5.9 293.8 C -6.2 294.3 -6.3 294.8 -5.9 295.3 C -5.6 295.8 -4.9 296.6 -3.7 297.6 L -1.6 294.7 Z " fill="rgb(255,255,255)"/><path d=" M 6.1 279 L 9.4 274.5 L 10.1 275 C 13.7 277.6 15.9 279.7 16.7 281.2 C 17.5 282.8 17.3 284.4 16.1 286.1 C 14.8 287.9 13.2 288.6 11.2 288.3 C 9.2 288 6.6 286.6 3.2 284.2 C -0.7 281.4 -2.9 279.1 -3.6 277.4 C -4.2 275.8 -4 274.2 -2.9 272.6 C -2 271.4 -1.1 270.7 0 270.4 C 1.1 270.1 2.4 270.3 4.1 270.9 L 3.4 273.9 C 2.8 273.7 2.3 273.5 1.9 273.4 C 1.5 273.3 1.1 273.2 0.8 273.3 C 0.2 273.3 -0.3 273.7 -0.7 274.3 C -1.3 275 -1.2 276 -0.4 277 C 0.4 278.1 2.2 279.6 5 281.6 C 7.8 283.6 9.8 284.8 11 285.2 C 12.2 285.6 13.1 285.4 13.7 284.5 C 14.3 283.7 14.3 282.9 13.9 282.1 C 13.4 281.2 12.3 280.2 10.7 279 L 10.2 278.6 L 9.8 278.3 L 8.2 280.5 L 6.1 279 Z " fill="rgb(255,255,255)"/><path d=" M 13.5 263.2 L 25.8 272.1 L 24.1 274.4 L 22.5 273.3 C 22.9 274.1 23.2 274.8 23.2 275.3 C 23.2 275.8 23 276.3 22.6 276.9 C 21.9 277.9 20.8 278.3 19.4 278 C 18 277.7 16.2 276.8 13.9 275.1 C 11.8 273.6 10.4 272.2 9.7 271 C 9 269.8 9.1 268.7 9.8 267.7 C 10.5 266.8 11.6 266.4 13 266.6 L 11.6 265.6 L 13.5 263.2 Z  M 15.9 272.8 C 17.5 274 18.7 274.7 19.5 274.9 C 20.3 275.1 20.9 275 21.3 274.4 C 21.7 273.9 21.6 273.3 21.1 272.6 C 20.5 271.9 19.5 270.9 18 269.9 C 16.5 268.8 15.3 268.1 14.4 267.8 C 13.6 267.5 13 267.7 12.6 268.2 C 12.2 268.7 12.2 269.4 12.7 270 C 13.3 270.7 14.3 271.6 15.9 272.8 Z " fill="rgb(255,255,255)"/><path d=" M 15.4 260.6 L 17.1 258.3 L 18.6 259.4 C 17.9 257.9 17.9 256.7 18.7 255.6 C 19.5 254.5 20.7 254.1 22.1 254.5 C 21.4 253.1 21.4 251.8 22.2 250.7 C 22.8 249.8 23.5 249.3 24.3 249.2 C 25.1 249.1 25.9 249.3 26.8 250 L 36.6 257.1 L 34.9 259.4 L 26.8 253.5 C 25.9 252.8 25.2 252.5 24.7 252.4 C 24.3 252.3 23.9 252.5 23.5 253 C 23.1 253.6 23 254 23.2 254.5 C 23.4 254.9 23.9 255.5 24.9 256.1 L 33 262 L 31.3 264.4 L 23.2 258.5 C 22.8 258.2 22.4 257.9 22 257.8 C 21.7 257.6 21.4 257.5 21.1 257.5 C 20.8 257.5 20.6 257.5 20.4 257.6 C 20.2 257.7 20 257.9 19.8 258.1 C 19.4 258.6 19.3 259.1 19.5 259.6 C 19.7 260.1 20.2 260.6 21.1 261.3 L 29.2 267.2 L 27.5 269.5 L 15.4 260.6 Z " fill="rgb(255,255,255)"/><path d=" M 37.8 246.9 L 39.3 244.8 C 42.1 247.1 42.7 249.3 41.1 251.5 C 40.6 252.2 40.1 252.6 39.5 252.9 C 38.9 253.2 38.2 253.3 37.5 253.2 C 36.8 253.1 35.9 252.9 35 252.5 C 34.1 252.1 33.1 251.5 32 250.7 C 29.8 249.1 28.4 247.7 27.8 246.3 C 27.2 244.9 27.3 243.6 28.3 242.3 C 30.1 239.8 33.2 240.2 37.5 243.3 L 37.8 243.5 L 34 248.7 C 36.6 250.6 38.3 251 39.1 250 C 39.9 249.1 39.4 248 37.8 246.9 Z  M 34.6 244.7 C 33.2 243.9 32.3 243.4 31.7 243.3 C 31.1 243.2 30.6 243.3 30.3 243.8 C 30 244.3 29.9 244.8 30.3 245.3 C 30.6 245.8 31.3 246.6 32.5 247.6 L 34.6 244.7 Z " fill="rgb(255,255,255)"/><path d=" M 47.9 228.9 C 52.1 231.9 53.2 234.7 51.4 237.3 C 49.5 239.9 46.5 239.6 42.2 236.6 C 37.9 233.5 36.8 230.7 38.6 228.1 C 39.1 227.4 39.6 226.9 40.2 226.6 C 40.8 226.3 41.5 226.2 42.3 226.2 C 43.1 226.3 43.9 226.5 44.8 226.9 C 45.8 227.5 46.8 228.1 47.9 228.9 Z  M 46.2 231.2 C 44.6 230 43.4 229.3 42.6 229.1 C 41.8 228.8 41.2 229 40.8 229.5 C 40.4 230 40.4 230.7 40.9 231.3 C 41.4 232 42.4 232.9 44 234 C 45.6 235.1 46.8 235.8 47.5 236.1 C 48.3 236.3 48.9 236.2 49.3 235.6 C 49.7 235.1 49.7 234.5 49.2 233.8 C 48.8 233.3 47.8 232.4 46.2 231.2 Z " fill="rgb(255,255,255)"/><path d=" M 42.6 223.1 L 43.4 222 L 39.1 218.9 C 37.7 217.9 36.8 217 36.6 216.1 C 36.3 215.3 36.6 214.3 37.3 213.3 C 37.6 212.9 38.1 212.4 38.7 212 L 41.1 213.7 C 40.6 213.9 40.3 214.2 40.1 214.4 C 39.8 214.8 39.7 215.1 39.8 215.5 C 39.9 215.8 40.2 216.2 40.8 216.6 L 41.7 217.3 L 45 219.7 L 46.4 217.8 L 48.2 219.1 L 46.8 221 L 57.3 228.6 L 55.7 230.9 L 45.2 223.3 L 44.4 224.4 L 42.6 223.1 Z " fill="rgb(255,255,255)"/></g><g><path d=" M 269.8 -51 L 272.1 -54.2 L 273 -53.6 L 272.2 -52.5 L 278.7 -47.8 L 278 -46.8 L 271.5 -51.5 L 270.7 -50.4 L 269.8 -51 Z " fill="rgb(255,255,255)"/><path d=" M 272.8 -55.1 L 273.4 -55.9 L 276.9 -54.4 C 277.3 -54.2 277.8 -54 278.2 -53.8 C 278.6 -53.6 279.1 -53.4 279.5 -53.1 L 279.4 -53.2 C 279.4 -53.2 279.4 -53.2 279.3 -53.3 L 278.6 -54 L 277.9 -54.7 L 277.5 -55.2 L 275 -57.9 L 275.6 -58.8 L 283.5 -54.1 L 282.8 -53.2 L 280.2 -54.8 C 280.1 -54.9 280 -55 279.9 -55 C 279.8 -55.1 279.7 -55.1 279.7 -55.2 L 278.7 -55.9 L 277.8 -56.5 L 277.8 -56.5 C 277.8 -56.5 277.8 -56.5 277.7 -56.6 L 277.8 -56.5 C 278 -56.3 278.1 -56.2 278.2 -56.1 C 278.3 -56 278.4 -55.9 278.5 -55.8 L 279.1 -55.2 L 279.3 -55 L 282.1 -52.1 L 281.6 -51.4 L 278.4 -52.8 C 278 -53 277.6 -53.2 277.1 -53.4 C 276.7 -53.6 276.2 -53.8 275.8 -54.1 L 280.7 -50.1 L 280 -49.2 L 272.8 -55.1 Z " fill="rgb(255,255,255)"/></g><path d=" M 18.507 296.691 L 41.603 264.773 L 114.674 317.648 L 91.578 349.566 L 18.507 296.691 Z  M 50.1 283.9 C 50.1 283.9 74.9 304.1 76.2 305.2 L 80.7 308.6 C 80.8 308.7 80.9 308.8 81.2 309 C 81.4 309.2 81.7 309.5 82.1 309.8 L 80.6 308.9 C 77.9 307.3 75.5 305.9 73.2 304.6 C 70.9 303.3 68.8 302.2 66.8 301.2 L 47 289.9 L 46.9 290 L 43.7 294.5 L 43.6 294.6 L 60.6 309.9 C 62.2 311.5 63.9 313.2 65.8 314.9 C 67.7 316.7 69.8 318.6 72.2 320.6 L 73.5 321.8 C 73.1 321.6 72.8 321.4 72.5 321.2 C 72.2 321 72.1 320.9 71.9 320.9 L 67.3 317.7 C 65.9 316.8 39 299.6 39 299.6 L 34.8 305.4 L 82.6 332.4 L 86.1 327.6 L 68.7 311 C 68.6 310.9 56.4 300.5 56.4 300.5 C 56.4 300.5 67.8 307.7 70 309.1 L 91.3 320 L 94.8 315.2 L 54.2 278.3 L 50.1 283.9 Z " fill-rule="evenodd" fill="rgb(255,255,255)"/></g></g></svg>