<?xml version="1.0" encoding="UTF-8" standalone="no"?><!-- Generator: Gravit.io --><svg xmlns="http://www.w3.org/2000/svg" xmlns:xlink="http://www.w3.org/1999/xlink" style="isolation:isolate" viewBox="-0.9 349.5 430.1 142.1" width="430.1pt" height="142.1pt"><g style="opacity:0.2;"><g opacity="0.2"><path d=" M 46.8 486.5 L 11.8 491.6 L 0.2 411.6 L 35.2 406.5 L 46.8 486.5 L 46.8 486.5 Z  M 20.4 422.9 C 17.1 423.4 14.6 424.9 12.9 427.4 C 11.3 429.9 10.7 433 11.3 436.8 C 11.7 439.6 12.5 441.8 13.8 443.5 C 14.5 444.4 15.4 445.3 16.7 446.4 C 18 447.5 19.5 448.7 21.4 450.1 C 22.6 451 23.6 451.8 24.5 452.6 C 25.4 453.4 26 454.1 26.5 454.7 C 27.5 456 28.1 457.5 28.3 459.3 C 28.6 461.3 28.3 463 27.5 464.3 C 26.7 465.6 25.4 466.4 23.6 466.7 C 21.7 467 19.5 466.4 16.9 465.1 L 17.8 471.6 C 20 472.8 22.5 473.3 25.2 472.9 C 28.5 472.4 31 470.8 32.8 468.2 C 34.6 465.5 35.2 462.2 34.6 458.5 C 34.2 455.7 33.4 453.5 32.1 451.7 C 30.9 449.9 28.7 447.8 25.7 445.5 C 24 444.3 22.7 443.2 21.6 442.3 C 20.5 441.4 19.8 440.7 19.3 440.1 C 18.4 439 17.8 437.6 17.5 435.9 C 17.2 434 17.5 432.4 18.5 431.1 C 19.4 429.7 20.7 428.9 22.4 428.7 C 24 428.5 25.9 428.9 28.1 430.1 L 27.2 423.7 C 25 422.8 22.7 422.6 20.4 422.9 Z " fill="rgb(255,255,255)"/></g><g opacity="0.2"><path d=" M 123.1 475.3 L 88.1 480.4 L 76.5 400.4 L 111.5 395.3 L 123.1 475.3 L 123.1 475.3 Z  M 99.2 461.5 L 105.7 460.6 L 98.7 412.2 L 92.2 413.1 L 99.2 461.5 L 99.2 461.5 Z " fill="rgb(255,255,255)"/></g><g opacity="0.2"><path d=" M 84.9 480.9 L 49.9 486 L 38.3 406 L 73.3 400.9 L 84.9 480.9 L 84.9 480.9 Z  M 66.3 418.2 C 66.3 418.2 68.8 446.7 68.9 448.3 L 69.5 453.3 C 69.5 453.4 69.5 453.6 69.5 453.9 C 69.5 454.2 69.5 454.5 69.6 454.9 L 69.2 453.4 C 68.6 450.7 67.9 448.2 67.3 446 C 66.7 443.7 66.1 441.7 65.4 439.8 L 60.3 420 L 60.2 420 L 55.3 420.7 L 55.2 420.7 L 56 441.2 C 55.9 443.2 55.9 445.4 56 447.7 C 56.1 450 56.2 452.6 56.3 455.4 L 56.4 457 C 56.3 456.6 56.2 456.2 56.2 456 C 56.1 455.7 56.1 455.5 56.1 455.4 L 55.3 450.4 C 55 448.9 49.3 420.8 49.3 420.8 L 43 421.7 L 55.5 469.3 L 60.7 468.5 L 60.7 447.2 C 60.7 447 59.8 432.8 59.8 432.8 C 59.8 432.8 62.3 444.6 62.8 446.9 L 69.1 467.4 L 74.3 466.6 L 72.7 417.4 L 66.3 418.2 L 66.3 418.2 Z " fill="rgb(255,255,255)"/></g><g opacity="0.2"><path d=" M 161.3 469.8 L 126.3 474.9 L 114.7 394.9 L 149.7 389.8 L 161.3 469.8 L 161.3 469.8 Z  M 123.7 414.4 L 131.2 413.3 L 137.4 456 L 143.8 455.1 L 137.6 412.4 L 144.9 411.3 L 144.1 405.6 L 122.9 408.7 L 123.7 414.4 L 123.7 414.4 Z " fill="rgb(255,255,255)"/></g><g opacity="0.2"><path d=" M 199.4 464.2 L 164.4 469.3 L 152.8 389.3 L 187.8 384.2 L 199.4 464.2 L 199.4 464.2 Z  M 176.6 400.2 C 171.7 400.9 168.3 403.6 166.5 408.1 C 164.7 412.7 164.5 419.3 165.7 427.9 C 168 443.9 174.1 451.2 183.9 449.8 C 185.8 449.5 187.5 448.8 189 447.7 L 188.1 441.7 C 186.7 442.6 185.5 443.1 184.4 443.3 C 178.3 444.2 174.3 438.7 172.6 426.7 C 172.1 423.4 171.9 420.5 171.9 418 C 171.9 415.5 172.1 413.4 172.6 411.7 C 173.1 410 173.8 408.7 174.8 407.8 C 175.8 406.9 177.1 406.3 178.6 406.1 C 179.7 405.9 181.2 406.1 183 406.7 L 182.1 400.8 C 180.3 400.2 178.4 399.9 176.6 400.2 Z " fill="rgb(255,255,255)"/></g><g opacity="0.2"><path d=" M 237.6 458.7 L 202.6 463.8 L 191 383.8 L 226 378.7 L 237.6 458.7 L 237.6 458.7 Z  M 205.4 446.1 L 211.9 445.2 L 208.4 421.3 L 218 419.9 L 221.5 443.8 L 228 442.9 L 221 394.5 L 214.5 395.4 L 217.3 414.3 L 207.7 415.7 L 204.9 396.8 L 198.4 397.7 L 205.4 446.1 L 205.4 446.1 Z " fill="rgb(255,255,255)"/></g><g opacity="0.2"><path d=" M 275.8 453.1 L 240.8 458.2 L 229.2 378.2 L 264.2 373.1 L 275.8 453.1 L 275.8 453.1 Z  M 245.3 440.3 L 253.8 439.1 C 261.4 438 264.6 433 263.3 424.1 C 262.8 420.9 262 418.5 260.8 417 C 259.6 415.5 257.6 414.4 254.9 413.8 C 257.1 412.7 258.5 411.2 259.1 409.5 C 259.7 407.8 259.9 405.3 259.4 402 C 258.2 393.4 254.1 389.6 247.2 390.6 L 238.4 391.9 L 245.3 440.3 L 245.3 440.3 Z  M 245.1 396.3 C 245.1 396.3 245.2 396.2 245.4 396.2 L 245.7 396.2 L 246.2 396.1 C 250 395.6 252.2 397.9 253 403.1 C 253.4 406.2 253.3 408.4 252.5 409.8 C 251.7 411.1 250 412 247.5 412.3 L 245.1 396.3 L 245.1 396.3 Z  M 248.2 417.5 C 250.8 417.1 252.7 417.5 254 418.6 C 255.2 419.7 256.1 421.8 256.5 424.9 C 256.9 427.9 256.7 430.1 255.9 431.4 C 255 432.7 253.3 433.5 250.6 433.9 L 248.2 417.5 L 248.2 417.5 Z " fill="rgb(255,255,255)"/></g><g opacity="0.2"><path d=" M 313.9 447.6 L 278.9 452.7 L 267.3 372.7 L 302.3 367.6 L 313.9 447.6 L 313.9 447.6 Z  M 299.2 394.8 C 298.1 391.5 296.8 389 295.2 387.3 C 292.8 384.8 289.6 383.9 285.6 384.4 C 281.1 385.1 278.1 387.3 276.7 391.2 C 275.3 395 275.3 401.3 276.5 409.9 C 277.9 419.6 279.8 426.1 282.3 429.6 C 284.8 433.2 288.4 434.6 293.1 434 C 297.6 433.3 300.5 431.1 301.9 427.2 C 303.3 423.3 303.3 417.1 302.1 408.6 C 301.2 402.4 300.2 397.8 299.2 394.8 Z  M 296.1 423.7 C 295.6 426.2 294.3 427.7 292.1 428 C 289.9 428.3 288.2 427.3 287 424.8 C 285.8 422.2 284.7 417.3 283.7 410.2 C 282.6 402.5 282.2 397.3 282.6 394.7 C 283 392.1 284.4 390.6 286.7 390.2 C 289 389.8 290.8 391 291.9 393.7 C 293.1 396.3 294.2 401.8 295.5 410.2 C 296.3 416.7 296.6 421.2 296.1 423.7 Z " fill="rgb(255,255,255)"/></g><g opacity="0.2"><path d=" M 352.1 442 L 317.1 447.1 L 305.5 367.1 L 340.5 362 L 352.1 442 L 352.1 442 Z  M 317.9 429.7 L 324.2 428.8 L 324.7 419.1 L 334.3 417.7 L 337.5 426.9 L 344 426 L 326.6 379.1 L 321.5 379.8 L 317.9 429.7 L 317.9 429.7 Z  M 324.8 413.9 L 325.1 407.5 C 325.2 404.1 325.3 400.8 325.4 397.8 C 325.4 394.8 325.4 391.8 325.2 388.8 C 326.7 394.7 328.3 400.2 330 405.3 L 332.6 412.8 L 324.8 413.9 L 324.8 413.9 Z " fill="rgb(255,255,255)"/></g><g opacity="0.2"><path d=" M 390.3 436.5 L 355.3 441.6 L 343.7 361.6 L 378.7 356.5 L 390.3 436.5 L 390.3 436.5 Z  M 359.2 423.7 L 365.7 422.8 L 362.3 399.1 L 374.6 421.5 L 381.2 420.5 L 368.9 398.3 C 371 397.5 372.4 395.9 373.3 393.7 C 374.2 391.5 374.3 388.6 373.8 385.1 C 373.1 380.6 371.6 377.4 369 375.5 C 367 374.1 364.3 373.6 360.7 374.1 L 352.1 375.3 L 359.2 423.7 L 359.2 423.7 Z  M 359.5 379.8 L 360.6 379.6 C 361.6 379.5 362.5 379.5 363.3 379.7 C 364.1 379.9 364.8 380.3 365.3 380.9 C 365.9 381.5 366.3 382.3 366.7 383.4 C 367.1 384.4 367.4 385.7 367.6 387.2 C 368 390 367.8 392 366.9 393.4 C 366 394.7 364.3 395.6 361.8 395.9 L 359.5 379.8 L 359.5 379.8 Z " fill="rgb(255,255,255)"/></g><g opacity="0.2"><path d=" M 428.4 430.9 L 393.4 436 L 381.8 356 L 416.8 350.9 L 428.4 430.9 Z  M 395.9 418.4 L 401.2 417.6 C 407.3 416.7 411.4 415 413.4 412.6 C 415.1 410.6 416.1 408 416.5 404.6 C 416.9 401.1 416.7 396.7 415.9 391.4 C 415.1 385.6 414 381.2 412.8 378.2 C 411.6 375.1 409.9 372.7 407.8 370.9 C 406.4 369.7 404.9 369 403.3 368.7 C 401.5 368.4 399.5 368.4 397 368.8 L 389 370 L 395.9 418.4 Z  M 396.1 374.5 L 396.9 374.4 C 400.4 373.9 403 374.9 404.8 377.5 C 406.5 380.1 407.9 385.1 409 392.6 C 410 399.5 410 404.3 409 406.9 C 408 409.5 405.5 411.1 401.6 411.7 L 396.1 374.5 Z " fill="rgb(255,255,255)"/></g><g style="opacity:0.2;"><g opacity="0.2"><path d=" M -0.9 383.6 L 7.9 382.3 L 8.2 384.7 L 5.2 385.1 L 7.8 402.9 L 5.1 403.3 L 2.5 385.5 L -0.6 386 L -0.9 383.6 L -0.9 383.6 Z " fill="rgb(255,255,255)"/></g><g opacity="0.2"><path d=" M 9 380.1 L 11.5 379.7 L 13 390 C 13.5 388.7 14.4 388 15.5 387.8 C 16.6 387.6 17.4 388 18 388.8 C 18.3 389.2 18.6 390.2 18.8 391.6 L 20.2 401.2 L 17.7 401.6 L 16.4 392.6 C 16.3 391.7 16.1 391.1 15.8 390.7 C 15.5 390.3 15.1 390.2 14.6 390.3 C 14.3 390.3 14.1 390.4 13.9 390.6 C 13.7 390.7 13.6 390.9 13.5 391.2 C 13.4 391.4 13.4 391.7 13.4 392.1 C 13.4 392.5 13.4 392.9 13.5 393.4 L 14.8 402.1 L 12.3 402.5 L 9 380.1 L 9 380.1 Z " fill="rgb(255,255,255)"/></g><g opacity="0.2"><path d=" M 27.6 395.4 L 29.9 395.1 C 30.2 398.3 29.1 400.1 26.7 400.4 C 26 400.5 25.3 400.5 24.8 400.3 C 24.2 400.1 23.8 399.8 23.3 399.2 C 22.9 398.7 22.5 398 22.2 397.2 C 21.9 396.4 21.7 395.3 21.5 394.1 C 21.2 391.7 21.2 389.9 21.7 388.7 C 22.2 387.5 23.1 386.7 24.5 386.5 C 27.2 386.1 28.9 388.3 29.6 393.1 L 29.6 393.4 L 23.9 394.2 C 24.3 397.1 25.1 398.5 26.3 398.3 C 27.5 398.1 27.9 397.1 27.6 395.4 Z  M 27 391.9 C 26.7 390.5 26.4 389.6 26.1 389.2 C 25.8 388.7 25.4 388.5 24.9 388.6 C 24.4 388.7 24.1 389 23.9 389.5 C 23.7 390 23.7 390.9 23.8 392.4 L 27 391.9 L 27 391.9 Z " fill="rgb(255,255,255)"/></g><g opacity="0.2"><path d=" M 41.9 387.1 L 46.8 386.4 L 46.9 387.2 C 47.5 391.1 47.5 393.8 47 395.3 C 46.5 396.8 45.4 397.7 43.5 398 C 41.6 398.3 40.1 397.7 39 396.2 C 38 394.8 37.2 392.2 36.6 388.5 C 36 384.3 36 381.4 36.7 379.9 C 37.3 378.5 38.5 377.6 40.3 377.4 C 41.6 377.2 42.7 377.4 43.5 377.9 C 44.3 378.4 45.1 379.4 45.7 380.8 L 43.3 382.2 C 43.1 381.7 42.9 381.3 42.7 380.9 C 42.5 380.6 42.3 380.3 42.1 380.1 C 41.7 379.7 41.2 379.6 40.5 379.7 C 39.6 379.8 39.1 380.5 38.9 381.6 C 38.7 382.8 38.9 384.9 39.3 388 C 39.7 391.1 40.2 393.1 40.7 394.1 C 41.2 395.1 41.9 395.6 42.9 395.4 C 43.8 395.3 44.3 394.8 44.5 394 C 44.7 393.1 44.7 391.8 44.5 390 L 44.4 389.5 L 44.3 389.1 L 41.9 389.4 L 41.9 387.1 L 41.9 387.1 Z " fill="rgb(255,255,255)"/></g><g opacity="0.2"><path d=" M 56.7 382 L 58.7 395.5 L 56.2 395.9 L 55.9 394.2 C 55.7 395 55.4 395.6 55.1 395.9 C 54.8 396.2 54.3 396.4 53.7 396.5 C 52.6 396.7 51.7 396.2 51 395.1 C 50.3 394 49.8 392.3 49.4 389.8 C 49.1 387.5 49.1 385.7 49.4 384.5 C 49.8 383.3 50.5 382.7 51.6 382.5 C 52.6 382.4 53.5 382.8 54.3 383.9 L 54.1 382.4 L 56.7 382 L 56.7 382 Z  M 52 389.5 C 52.3 391.3 52.6 392.5 52.9 393.2 C 53.2 393.9 53.7 394.2 54.3 394.1 C 54.9 394 55.2 393.6 55.4 392.8 C 55.5 392 55.5 390.8 55.3 389.1 C 55.1 387.5 54.8 386.3 54.4 385.5 C 54 384.8 53.6 384.5 53 384.6 C 52.4 384.7 52 385.1 51.9 385.8 C 51.7 386.5 51.8 387.8 52 389.5 Z " fill="rgb(255,255,255)"/></g><g opacity="0.2"><path d=" M 59.5 381.6 L 62 381.2 L 62.2 382.9 C 62.7 381.5 63.5 380.8 64.7 380.6 C 65.9 380.4 66.9 380.9 67.5 382.1 C 68 380.7 68.8 380 70 379.8 C 70.9 379.7 71.7 379.8 72.3 380.2 C 72.9 380.6 73.2 381.3 73.4 382.3 L 75 393.1 L 72.5 393.5 L 71.2 384.6 C 71.1 383.6 70.9 382.9 70.6 382.6 C 70.4 382.3 70 382.1 69.5 382.2 C 68.9 382.3 68.5 382.5 68.4 382.9 C 68.2 383.3 68.2 384 68.4 385 L 69.7 393.9 L 67.1 394.3 L 65.8 385.4 C 65.7 384.9 65.6 384.5 65.6 384.2 C 65.5 383.9 65.4 383.6 65.2 383.4 C 65.1 383.2 64.9 383.1 64.7 383 C 64.5 382.9 64.3 382.9 64 383 C 63.4 383.1 63 383.3 62.9 383.8 C 62.7 384.2 62.7 384.9 62.8 385.9 L 64.1 394.8 L 61.6 395.2 L 59.5 381.6 L 59.5 381.6 Z " fill="rgb(255,255,255)"/></g><g opacity="0.2"><path d=" M 82.4 387.4 L 84.7 387.1 C 85 390.3 83.9 392.1 81.5 392.4 C 80.8 392.5 80.1 392.5 79.6 392.3 C 79 392.1 78.6 391.8 78.1 391.2 C 77.7 390.7 77.3 390 77 389.2 C 76.7 388.4 76.5 387.3 76.3 386.1 C 76 383.7 76 381.9 76.5 380.7 C 77 379.5 77.9 378.7 79.3 378.5 C 82 378.1 83.7 380.3 84.4 385.1 L 84.4 385.4 L 78.7 386.2 C 79.1 389.1 79.9 390.5 81.1 390.3 C 82.3 390.1 82.7 389.2 82.4 387.4 Z  M 81.8 383.9 C 81.5 382.5 81.2 381.6 80.9 381.2 C 80.6 380.7 80.2 380.5 79.7 380.6 C 79.2 380.7 78.9 381 78.7 381.5 C 78.5 382 78.5 382.9 78.6 384.4 L 81.8 383.9 L 81.8 383.9 Z " fill="rgb(255,255,255)"/></g><g opacity="0.2"><path d=" M 100.3 382.7 C 101 387.3 99.9 389.8 97.1 390.2 C 94.3 390.6 92.5 388.5 91.8 383.9 C 91.1 379.2 92.2 376.7 95 376.3 C 95.7 376.2 96.4 376.2 97 376.4 C 97.6 376.6 98.1 377 98.5 377.5 C 98.9 378 99.3 378.7 99.6 379.6 C 99.8 380.4 100.1 381.5 100.3 382.7 Z  M 97.7 383 C 97.4 381.2 97.1 380 96.8 379.3 C 96.5 378.6 96 378.3 95.4 378.4 C 94.8 378.5 94.4 378.9 94.3 379.6 C 94.2 380.3 94.2 381.6 94.5 383.3 C 94.8 385 95 386.2 95.4 386.9 C 95.8 387.6 96.2 387.8 96.8 387.8 C 97.4 387.7 97.8 387.3 97.9 386.6 C 98 386 97.9 384.7 97.7 383 Z " fill="rgb(255,255,255)"/></g><g opacity="0.2"><path d=" M 100.6 375.6 L 101.9 375.4 L 101.2 370.7 C 101 369.2 101 368 101.4 367.3 C 101.8 366.6 102.5 366.2 103.6 366 C 104.1 365.9 104.7 366 105.3 366.1 L 105.7 368.7 C 105.3 368.5 104.9 368.5 104.6 368.5 C 104.2 368.6 103.9 368.7 103.7 369 C 103.6 369.3 103.5 369.7 103.6 370.3 L 103.7 371.3 L 104.2 374.9 L 106.3 374.6 L 106.6 376.6 L 104.5 376.9 L 106.2 388.4 L 103.7 388.8 L 102 377.3 L 100.7 377.5 L 100.6 375.6 L 100.6 375.6 Z " fill="rgb(255,255,255)"/></g></g><g style="opacity:0.2;"><g opacity="0.2"><path d=" M 418.7 350.6 L 422.2 350.1 L 422.3 351.1 L 421.1 351.3 L 422.1 358.4 L 421 358.6 L 420 351.5 L 418.7 351.7 L 418.7 350.6 L 418.7 350.6 Z " fill="rgb(255,255,255)"/></g><g opacity="0.2"><path d=" M 423.3 349.9 L 424.2 349.8 L 425.4 353 C 425.5 353.4 425.7 353.8 425.8 354.2 C 425.9 354.6 426.1 355 426.2 355.5 C 426.2 355.4 426.2 355.4 426.2 355.4 C 426.2 355.4 426.2 355.3 426.2 355.3 L 426.2 354.4 L 426.2 353.5 L 426.2 352.9 L 426.4 349.6 L 427.3 349.5 L 429.2 357.5 L 428.2 357.7 L 427.6 355 C 427.6 354.9 427.5 354.7 427.5 354.6 C 427.5 354.5 427.5 354.4 427.5 354.4 L 427.3 353.3 L 427.1 352.3 C 427.1 352.3 427.1 352.3 427.1 352.3 C 427.1 352.3 427.1 352.2 427.1 352.2 L 427.1 352.4 C 427.1 352.6 427.1 352.8 427.1 352.9 C 427.1 353 427.1 353.2 427.1 353.3 L 427.1 354.1 L 427.1 354.4 L 426.9 358 L 426.2 358.1 L 425.1 355.2 C 425 354.8 424.8 354.4 424.7 354 C 424.6 353.6 424.4 353.2 424.3 352.7 L 424.8 358.3 L 423.8 358.4 L 423.3 349.9 L 423.3 349.9 Z " fill="rgb(255,255,255)"/></g></g></g></svg>