<?xml version="1.0" encoding="UTF-8" standalone="no"?><!-- Generator: Gravit.io --><svg xmlns="http://www.w3.org/2000/svg" xmlns:xlink="http://www.w3.org/1999/xlink" style="isolation:isolate" viewBox="0 0 144 432" width="144pt" height="432pt"><defs><clipPath id="_clipPath_993gHubs6JeWAAc42ETRFUInjNmRZpf0"><rect width="144" height="432"/></clipPath></defs><g clip-path="url(#_clipPath_993gHubs6JeWAAc42ETRFUInjNmRZpf0)"><g><path d=" M -172.787 401.566 L -149.691 369.648 L -76.62 422.523 L -99.716 454.441 L -172.787 401.566 Z  M -142 389.1 L -136.2 393.3 C -138.8 394.2 -140.6 395.3 -141.7 396.8 C -142.8 398.4 -143.2 400 -142.8 401.8 C -142.5 403.6 -141.4 405.1 -139.7 406.3 C -138.2 407.4 -136.6 408 -135 408.1 C -134.1 408.2 -132.9 408.1 -131.4 408 C -129.9 407.8 -128 407.6 -125.7 407.2 C -121.5 406.6 -118.2 406.4 -115.7 406.9 C -113.3 407.3 -110.9 408.4 -108.4 410.2 C -105 412.7 -102.9 415.7 -102 419.2 C -101.2 422.7 -101.9 425.9 -104.1 429 C -105.9 431.5 -108.2 433.2 -110.9 434 L -116.8 429.7 C -113.7 428.7 -111.6 427.3 -110.3 425.6 C -109.1 424 -108.7 422.3 -109.2 420.6 C -109.6 418.9 -110.7 417.4 -112.6 416 C -114.2 414.8 -115.9 414.1 -117.7 413.9 C -118.6 413.8 -119.6 413.8 -120.9 413.9 C -122.2 414 -123.6 414.1 -125.3 414.4 C -127.9 414.8 -130.1 415.1 -132 415.3 C -133.9 415.5 -135.4 415.5 -136.6 415.3 C -138.9 415 -141.4 413.9 -143.9 412.1 C -147.4 409.6 -149.4 406.7 -150.2 403.5 C -150.9 400.2 -150.2 397 -148 394 C -146.4 391.9 -144.4 390.3 -142 389.1 Z " fill-rule="evenodd" fill="rgb(255,255,255)"/><path d=" M -122.334 331.793 L -99.237 299.875 L -26.166 352.75 L -49.263 384.668 L -122.334 331.793 Z  M -100 329.1 L -95.7 323.1 L -51.5 355.1 L -55.8 361.1 L -100 329.1 Z " fill-rule="evenodd" fill="rgb(255,255,255)"/><path d=" M -97.107 297.044 L -74.011 265.126 L -0.94 318.001 L -24.036 349.919 L -97.107 297.044 Z  M -79.7 301 L -65.7 281.6 L -60.5 285.4 L -65.3 292.1 L -26.3 320.3 L -30.5 326.1 L -69.5 297.9 L -74.5 304.8 L -79.7 301 Z " fill-rule="evenodd" fill="rgb(255,255,255)"/><path d=" M -71.799 262.079 L -48.703 230.161 L 24.368 283.036 L 1.272 314.954 L -71.799 262.079 Z  M -39.9 247.5 L -34.5 251.4 C -36.3 252.4 -37.6 253.4 -38.4 254.4 C -39.4 255.8 -40 257.3 -40 258.8 C -40 260.3 -39.6 261.9 -38.6 263.6 C -37.6 265.3 -36.1 267.1 -34.1 269 C -32.1 270.9 -29.6 273 -26.6 275.2 C -15.7 283.1 -8.2 284.3 -4.2 278.7 C -3.5 277.7 -3 276.3 -2.6 274.5 L 2.9 278.5 C 2.7 280.5 1.9 282.4 0.6 284.2 C -5.9 293.2 -16.4 292.3 -31 281.8 C -38.9 276.1 -44 270.7 -46.3 265.8 C -48.6 260.8 -48.1 256.1 -44.8 251.6 C -43.5 249.8 -41.9 248.5 -39.9 247.5 Z " fill-rule="evenodd" fill="rgb(255,255,255)"/><path d=" M -46.698 227.262 L -23.602 195.344 L 49.469 248.219 L 26.373 280.137 L -46.698 227.262 Z  M -29.8 232.1 L -25.5 226.1 L -8.2 238.6 L -1.9 229.9 L -19.2 217.4 L -14.9 211.4 L 29.3 243.4 L 25 249.4 L 3.1 233.6 L -3.2 242.3 L 18.7 258.1 L 14.4 264.1 L -29.8 232.1 Z " fill-rule="evenodd" fill="rgb(255,255,255)"/><path d=" M -21.413 192.431 L 1.684 160.513 L 74.755 213.388 L 51.658 245.306 L -21.413 192.431 Z  M 20.1 204.1 C 21.8 201.8 22.4 199.8 22 198.1 C 21.5 196.4 19.9 194.5 17 192.5 C 12.2 189 8.6 189 6.1 192.5 L 5.8 193 L 5.6 193.3 C 5.5 193.5 5.4 193.6 5.4 193.6 L 20.1 204.1 L 20.1 204.1 Z  M 39.7 218.3 C 41.5 215.9 42.2 213.8 41.8 212.1 C 41.4 210.4 39.9 208.6 37.1 206.6 C 34.3 204.6 31.9 203.6 30.1 203.8 C 28.3 203.9 26.5 205.2 24.8 207.6 L 39.7 218.3 L 39.7 218.3 Z  M -3.4 195.6 L 2.4 187.5 C 7 181.2 13.2 180.9 21 186.5 C 24 188.7 25.9 190.7 26.8 192.6 C 27.7 194.5 27.7 196.7 26.9 199.3 C 29.6 197.6 32 196.9 34.1 197.1 C 36.2 197.3 38.8 198.4 41.7 200.6 C 49.8 206.5 51.4 212.9 46.3 219.8 L 40.7 227.6 L -3.4 195.6 L -3.4 195.6 Z " fill-rule="evenodd" fill="rgb(255,255,255)"/><path d=" M 3.828 157.592 L 26.924 125.674 L 99.995 178.549 L 76.899 210.467 L 3.828 157.592 Z  M 55.6 164.2 C 47.9 158.7 42.6 155.3 39.6 154.2 C 36.6 153.1 34.3 153.6 32.8 155.7 C 31.3 157.8 31.4 160.1 33.2 162.4 C 35 164.8 39.5 168.5 46.5 173.6 C 53 178.3 57.7 181.2 60.7 182.2 C 63.6 183.2 65.8 182.6 67.3 180.6 C 68.8 178.6 68.6 176.4 67 174.1 C 65.3 171.7 61.6 168.4 55.6 164.2 L 55.6 164.2 Z  M 59.5 157.5 C 67.3 163.1 72.2 168 74.2 172.1 C 76.2 176.2 75.8 180.3 72.8 184.4 C 69.7 188.7 65.7 190.4 60.9 189.6 C 56.2 188.8 49.4 185.3 40.6 178.9 C 32.7 173.2 27.8 168.3 25.8 164.2 C 23.8 160.1 24.3 156 27.3 151.8 C 30 148.1 33.2 146.3 37.1 146.3 C 39.7 146.3 42.7 147.2 46.2 149 C 49.5 150.6 54 153.4 59.5 157.5 L 59.5 157.5 Z " fill-rule="evenodd" fill="rgb(255,255,255)"/><path d=" M 29.122 122.717 L 52.218 90.799 L 125.289 143.674 L 102.193 175.592 L 29.122 122.717 Z  M 86.6 136.4 L 78.6 132.6 C 73.2 130 67.5 127 61.7 123.6 C 64.2 125.8 66.6 128.1 69 130.5 C 71.4 132.9 73.9 135.5 76.6 138.3 L 81.5 143.5 L 86.6 136.4 L 86.6 136.4 Z  M 51.5 119.7 L 54.9 115.1 L 106 137.5 L 101.7 143.4 L 91.9 138.8 L 85.6 147.6 L 93 155.5 L 88.9 161.2 L 51.5 119.7 L 51.5 119.7 Z " fill-rule="evenodd" fill="rgb(255,255,255)"/><path d=" M 54.282 87.819 L 77.378 55.901 L 150.449 108.776 L 127.353 140.694 L 54.282 87.819 Z  M 95.7 99.8 C 97.4 97.5 98 95.5 97.6 93.7 C 97.2 92 95.8 90.2 93.2 88.4 C 91.8 87.4 90.6 86.7 89.5 86.2 C 88.4 85.7 87.4 85.4 86.4 85.4 C 85.5 85.4 84.6 85.6 83.9 86.1 C 83.1 86.6 82.4 87.3 81.7 88.2 L 81 89.2 L 95.7 99.8 L 95.7 99.8 Z  M 71.9 91.6 L 77.6 83.8 C 79.9 80.6 82.5 78.7 85.2 78.2 C 88.7 77.6 92.4 78.9 96.6 81.8 C 99.8 84.1 101.9 86.5 103.1 88.9 C 104.2 91.3 104.3 93.7 103.4 96 L 130.8 103.4 L 126.4 109.4 L 98.7 102 L 120.3 117.7 L 116 123.7 L 71.9 91.6 L 71.9 91.6 Z " fill-rule="evenodd" fill="rgb(255,255,255)"/><path d=" M 79.522 52.979 L 102.619 21.061 L 175.69 73.937 L 152.593 105.855 L 79.522 52.979 Z  M 139.4 80.4 C 142 76.8 142.7 73.6 141.4 70.7 C 140.1 67.9 136.3 64.1 130 59.5 C 123.2 54.6 118.1 51.8 114.6 51.1 C 111.2 50.5 108.3 51.7 106 54.9 L 105.5 55.6 L 139.4 80.4 L 139.4 80.4 Z  M 96.1 58.1 L 101.4 50.8 C 103 48.6 104.6 46.9 106.2 45.7 C 107.7 44.6 109.5 44 111.5 43.8 C 114.5 43.5 117.8 44 121.2 45.4 C 124.6 46.8 128.9 49.3 134.2 53.2 C 139.1 56.7 142.8 60 145.3 63 C 147.7 65.9 149 68.8 149.3 71.6 C 149.7 75.2 147.8 79.7 143.8 85.3 L 140.3 90.1 L 96.1 58.1 L 96.1 58.1 Z " fill-rule="evenodd" fill="rgb(255,255,255)"/><g><path d=" M -196 380.5 L -190.2 372.4 L -188 374 L -190 376.8 L -173.8 388.6 L -175.5 391 L -191.7 379.2 L -193.8 382.1 L -196 380.5 Z " fill="rgb(255,255,255)"/><path d=" M -191.1 369.9 L -189.5 367.6 L -180.2 374.4 C -180.8 373 -180.7 371.7 -180 370.7 C -179.3 369.7 -178.4 369.3 -177.3 369.4 C -176.7 369.5 -175.7 370 -174.5 370.9 L -165.7 377.3 L -167.4 379.6 L -175.7 373.6 C -176.5 373 -177.2 372.7 -177.7 372.6 C -178.2 372.5 -178.6 372.8 -179 373.2 C -179.2 373.5 -179.3 373.7 -179.3 374 C -179.3 374.2 -179.3 374.5 -179.2 374.8 C -179.1 375.1 -178.9 375.3 -178.6 375.6 C -178.3 375.9 -177.9 376.2 -177.5 376.5 L -169.5 382.3 L -171.1 384.6 L -191.1 369.9 Z " fill="rgb(255,255,255)"/><path d=" M -164.3 366.9 L -162.8 364.8 C -160 367.1 -159.4 369.3 -161 371.5 C -161.5 372.2 -162 372.6 -162.6 372.9 C -163.2 373.2 -163.9 373.3 -164.6 373.2 C -165.3 373.1 -166.2 372.9 -167.1 372.5 C -168 372.1 -169 371.5 -170.1 370.7 C -172.3 369.1 -173.7 367.7 -174.3 366.3 C -174.9 364.9 -174.8 363.6 -173.8 362.3 C -172 359.8 -168.9 360.2 -164.6 363.3 L -164.3 363.5 L -168.1 368.7 C -165.5 370.6 -163.8 371 -163 370 C -162.3 369.1 -162.7 368 -164.3 366.9 Z  M -167.6 364.7 C -169 363.9 -169.9 363.4 -170.5 363.3 C -171.1 363.2 -171.6 363.3 -171.9 363.8 C -172.2 364.3 -172.3 364.8 -171.9 365.3 C -171.6 365.8 -170.9 366.6 -169.7 367.6 L -167.6 364.7 Z " fill="rgb(255,255,255)"/><path d=" M -159.9 349 L -156.6 344.5 L -155.9 345 C -152.3 347.6 -150.1 349.7 -149.3 351.2 C -148.5 352.8 -148.7 354.4 -149.9 356.1 C -151.2 357.9 -152.8 358.6 -154.8 358.3 C -156.8 358 -159.4 356.6 -162.8 354.2 C -166.7 351.4 -168.9 349.1 -169.6 347.4 C -170.2 345.8 -170 344.2 -168.9 342.6 C -168 341.4 -167.1 340.7 -166 340.4 C -164.9 340.1 -163.6 340.3 -161.9 340.9 L -162.6 343.9 C -163.2 343.7 -163.7 343.5 -164.1 343.4 C -164.5 343.3 -164.9 343.2 -165.2 343.3 C -165.8 343.3 -166.3 343.7 -166.7 344.3 C -167.3 345 -167.2 346 -166.4 347 C -165.6 348.1 -163.8 349.6 -161 351.6 C -158.2 353.6 -156.2 354.8 -155 355.2 C -153.8 355.6 -152.9 355.4 -152.3 354.5 C -151.7 353.7 -151.7 352.9 -152.1 352.1 C -152.6 351.2 -153.7 350.2 -155.3 349 L -155.8 348.6 L -156.2 348.3 L -157.8 350.5 L -159.9 349 Z " fill="rgb(255,255,255)"/><path d=" M -152.5 333.2 L -140.2 342.1 L -141.9 344.4 L -143.5 343.3 C -143.1 344.1 -142.8 344.8 -142.8 345.3 C -142.8 345.8 -143 346.3 -143.4 346.9 C -144.1 347.9 -145.2 348.3 -146.6 348 C -148 347.7 -149.8 346.8 -152.1 345.1 C -154.2 343.6 -155.6 342.2 -156.3 341 C -157 339.8 -156.9 338.7 -156.2 337.7 C -155.5 336.8 -154.4 336.4 -153 336.6 L -154.4 335.6 L -152.5 333.2 Z  M -150.1 342.8 C -148.5 344 -147.3 344.7 -146.5 344.9 C -145.7 345.1 -145.1 345 -144.7 344.4 C -144.3 343.9 -144.4 343.3 -144.9 342.6 C -145.5 341.9 -146.5 340.9 -148 339.9 C -149.5 338.8 -150.7 338.1 -151.6 337.8 C -152.4 337.5 -153 337.7 -153.4 338.2 C -153.8 338.7 -153.8 339.4 -153.3 340 C -152.7 340.7 -151.7 341.6 -150.1 342.8 Z " fill="rgb(255,255,255)"/><path d=" M -150.6 330.6 L -148.9 328.3 L -147.4 329.4 C -148.1 327.9 -148.1 326.7 -147.3 325.6 C -146.5 324.5 -145.3 324.1 -143.9 324.5 C -144.6 323.1 -144.6 321.8 -143.8 320.7 C -143.2 319.8 -142.5 319.3 -141.7 319.2 C -140.9 319.1 -140.1 319.3 -139.2 320 L -129.4 327.1 L -131.1 329.4 L -139.2 323.5 C -140.1 322.8 -140.8 322.5 -141.3 322.4 C -141.7 322.3 -142.1 322.5 -142.5 323 C -142.9 323.6 -143 324 -142.8 324.5 C -142.6 324.9 -142.1 325.5 -141.1 326.1 L -133 332 L -134.7 334.4 L -142.8 328.5 C -143.2 328.2 -143.6 327.9 -144 327.8 C -144.3 327.6 -144.6 327.5 -144.9 327.5 C -145.2 327.5 -145.4 327.5 -145.6 327.6 C -145.8 327.7 -146 327.9 -146.2 328.1 C -146.6 328.6 -146.7 329.1 -146.5 329.6 C -146.3 330.1 -145.8 330.6 -144.9 331.3 L -136.8 337.2 L -138.5 339.5 L -150.6 330.6 Z " fill="rgb(255,255,255)"/><path d=" M -128.2 316.9 L -126.7 314.8 C -123.9 317.1 -123.3 319.3 -124.9 321.5 C -125.4 322.2 -125.9 322.6 -126.5 322.9 C -127.1 323.2 -127.8 323.3 -128.5 323.2 C -129.2 323.1 -130.1 322.9 -131 322.5 C -131.9 322.1 -132.9 321.5 -134 320.7 C -136.2 319.1 -137.6 317.7 -138.2 316.3 C -138.8 314.9 -138.7 313.6 -137.7 312.3 C -135.9 309.8 -132.8 310.2 -128.5 313.3 L -128.2 313.5 L -132 318.7 C -129.4 320.6 -127.7 321 -126.9 320 C -126.1 319.1 -126.6 318 -128.2 316.9 Z  M -131.4 314.7 C -132.8 313.9 -133.7 313.4 -134.3 313.3 C -134.9 313.2 -135.4 313.3 -135.7 313.8 C -136 314.3 -136.1 314.8 -135.7 315.3 C -135.4 315.8 -134.7 316.6 -133.5 317.6 L -131.4 314.7 Z " fill="rgb(255,255,255)"/><path d=" M -118.1 298.9 C -113.9 301.9 -112.8 304.7 -114.6 307.3 C -116.5 309.9 -119.5 309.6 -123.8 306.6 C -128.1 303.5 -129.2 300.7 -127.4 298.1 C -126.9 297.4 -126.4 296.9 -125.8 296.6 C -125.2 296.3 -124.5 296.2 -123.7 296.2 C -122.9 296.3 -122.1 296.5 -121.2 296.9 C -120.2 297.5 -119.2 298.1 -118.1 298.9 Z  M -119.8 301.2 C -121.4 300 -122.6 299.3 -123.4 299.1 C -124.2 298.8 -124.8 299 -125.2 299.5 C -125.6 300 -125.6 300.7 -125.1 301.3 C -124.6 302 -123.6 302.9 -122 304 C -120.4 305.1 -119.2 305.8 -118.5 306.1 C -117.7 306.3 -117.1 306.2 -116.7 305.6 C -116.3 305.1 -116.3 304.5 -116.8 303.8 C -117.2 303.3 -118.2 302.4 -119.8 301.2 Z " fill="rgb(255,255,255)"/><path d=" M -123.4 293.1 L -122.6 292 L -126.9 288.9 C -128.3 287.9 -129.2 287 -129.4 286.1 C -129.7 285.3 -129.4 284.3 -128.7 283.3 C -128.4 282.9 -127.9 282.4 -127.3 282 L -124.9 283.7 C -125.4 283.9 -125.7 284.2 -125.9 284.4 C -126.2 284.8 -126.3 285.1 -126.2 285.5 C -126.1 285.8 -125.8 286.2 -125.2 286.6 L -124.3 287.3 L -121 289.7 L -119.6 287.8 L -117.8 289.1 L -119.2 291 L -108.7 298.6 L -110.3 300.9 L -120.8 293.3 L -121.6 294.4 L -123.4 293.1 Z " fill="rgb(255,255,255)"/></g><g><path d=" M 103.8 19 L 106.1 15.8 L 107 16.4 L 106.2 17.5 L 112.7 22.2 L 112 23.2 L 105.5 18.5 L 104.7 19.6 L 103.8 19 Z " fill="rgb(255,255,255)"/><path d=" M 106.8 14.9 L 107.4 14.1 L 110.9 15.6 C 111.3 15.8 111.8 16 112.2 16.2 C 112.6 16.4 113.1 16.6 113.5 16.9 L 113.4 16.8 C 113.4 16.8 113.4 16.8 113.3 16.7 L 112.6 16 L 111.9 15.3 L 111.5 14.8 L 109 12.1 L 109.6 11.2 L 117.5 15.9 L 116.8 16.8 L 114.2 15.2 C 114.1 15.1 114 15 113.9 15 C 113.8 14.9 113.7 14.9 113.7 14.8 L 112.7 14.1 L 111.8 13.5 L 111.8 13.5 C 111.8 13.5 111.8 13.5 111.7 13.4 L 111.8 13.5 C 112 13.7 112.1 13.8 112.2 13.9 C 112.3 14 112.4 14.1 112.5 14.2 L 113.1 14.8 L 113.3 15 L 116.1 17.9 L 115.6 18.6 L 112.4 17.2 C 112 17 111.6 16.8 111.1 16.6 C 110.7 16.4 110.2 16.2 109.8 15.9 L 114.7 19.9 L 114 20.8 L 106.8 14.9 Z " fill="rgb(255,255,255)"/></g><path d=" M -147.493 366.691 L -124.397 334.773 L -51.326 387.648 L -74.422 419.566 L -147.493 366.691 Z  M -115.9 353.9 C -115.9 353.9 -91.1 374.1 -89.8 375.2 L -85.3 378.6 C -85.2 378.7 -85.1 378.8 -84.8 379 C -84.6 379.2 -84.3 379.5 -83.9 379.8 L -85.4 378.9 C -88.1 377.3 -90.5 375.9 -92.8 374.6 C -95.1 373.3 -97.2 372.2 -99.2 371.2 L -119 359.9 L -119.1 360 L -122.3 364.5 L -122.4 364.6 L -105.4 379.9 C -103.8 381.5 -102.1 383.2 -100.2 384.9 C -98.3 386.7 -96.2 388.6 -93.8 390.6 L -92.5 391.8 C -92.9 391.6 -93.2 391.4 -93.5 391.2 C -93.8 391 -93.9 390.9 -94.1 390.9 L -98.7 387.7 C -100.1 386.8 -127 369.6 -127 369.6 L -131.2 375.4 L -83.4 402.4 L -79.9 397.6 L -97.3 381 C -97.4 380.9 -109.6 370.5 -109.6 370.5 C -109.6 370.5 -98.2 377.7 -96 379.1 L -74.7 390 L -71.2 385.2 L -111.8 348.3 L -115.9 353.9 Z " fill-rule="evenodd" fill="rgb(255,255,255)"/></g></g></svg>