<?xml version="1.0" encoding="UTF-8" standalone="no"?><!-- Generator: Gravit.io --><svg xmlns="http://www.w3.org/2000/svg" xmlns:xlink="http://www.w3.org/1999/xlink" style="isolation:isolate" viewBox="0 0 144 432" width="144pt" height="432pt"><defs><clipPath id="_clipPath_doOcs7Tp3HwBbDMx6aJCYiamx3Ow4qQX"><rect width="144" height="432"/></clipPath></defs><g clip-path="url(#_clipPath_doOcs7Tp3HwBbDMx6aJCYiamx3Ow4qQX)"><clipPath id="_clipPath_AXwdr2Eegyqcl9ANR0YiB0SijmUJILzZ"><rect x="0" y="0" width="144" height="432" transform="matrix(1,0,0,1,0,0)" fill="#535615"/></clipPath><g clip-path="url(#_clipPath_AXwdr2Eegyqcl9ANR0YiB0SijmUJILzZ)"><g><g><path d=" M 3.213 331.566 L 26.309 299.648 L 99.38 352.523 L 76.284 384.441 L 3.213 331.566 L 3.213 331.566 Z  M 34 319.1 L 39.8 323.3 C 37.2 324.2 35.4 325.3 34.3 326.8 C 33.2 328.4 32.8 330 33.2 331.8 C 33.5 333.6 34.6 335.1 36.3 336.3 C 37.8 337.4 39.4 338 41 338.1 C 41.9 338.2 43.1 338.1 44.6 338 C 46.1 337.8 48 337.6 50.3 337.2 C 54.5 336.6 57.8 336.4 60.3 336.9 C 62.7 337.3 65.1 338.4 67.6 340.2 C 71 342.7 73.1 345.7 74 349.2 C 74.8 352.7 74.1 355.9 71.9 359 C 70.1 361.5 67.8 363.2 65.1 364 L 59.2 359.7 C 62.3 358.7 64.4 357.3 65.7 355.6 C 66.9 354 67.3 352.3 66.8 350.6 C 66.4 348.9 65.3 347.4 63.4 346 C 61.8 344.8 60.1 344.1 58.3 343.9 C 57.4 343.8 56.4 343.8 55.1 343.9 C 53.8 344 52.4 344.1 50.7 344.4 C 48.1 344.8 45.9 345.1 44 345.3 C 42.1 345.5 40.6 345.5 39.4 345.3 C 37.1 345 34.6 343.9 32.1 342.1 C 28.6 339.6 26.6 336.7 25.8 333.5 C 25.1 330.2 25.8 327 28 324 C 29.6 321.9 31.6 320.3 34 319.1 Z " fill-rule="evenodd" fill="#535615"/><path d=" M 53.666 261.793 L 76.763 229.875 L 149.834 282.75 L 126.737 314.668 L 53.666 261.793 L 53.666 261.793 Z  M 76 259.1 L 80.3 253.1 L 124.5 285.1 L 120.2 291.1 L 76 259.1 L 76 259.1 Z " fill-rule="evenodd" fill="#535615"/><path d=" M 78.893 227.044 L 101.989 195.126 L 175.06 248.001 L 151.964 279.919 L 78.893 227.044 L 78.893 227.044 Z  M 96.3 231 L 110.3 211.6 L 115.5 215.4 L 110.7 222.1 L 149.7 250.3 L 145.5 256.1 L 106.5 227.9 L 101.5 234.8 L 96.3 231 L 96.3 231 Z " fill-rule="evenodd" fill="#535615"/><path d=" M 104.201 192.079 L 127.297 160.161 L 200.368 213.036 L 177.272 244.954 L 104.201 192.079 L 104.201 192.079 Z  M 136.1 177.5 L 141.5 181.4 C 139.7 182.4 138.4 183.4 137.6 184.4 C 136.6 185.8 136 187.3 136 188.8 C 136 190.3 136.4 191.9 137.4 193.6 C 138.4 195.3 139.9 197.1 141.9 199 C 143.9 200.9 146.4 203 149.4 205.2 C 160.3 213.1 167.8 214.3 171.8 208.7 C 172.5 207.7 173 206.3 173.4 204.5 L 178.9 208.5 C 178.7 210.5 177.9 212.4 176.6 214.2 C 170.1 223.2 159.6 222.3 145 211.8 C 137.1 206.1 132 200.7 129.7 195.8 C 127.4 190.8 127.9 186.1 131.2 181.6 C 132.5 179.8 134.1 178.5 136.1 177.5 Z " fill-rule="evenodd" fill="#535615"/><path d=" M 129.302 157.262 L 152.398 125.344 L 225.469 178.219 L 202.373 210.137 L 129.302 157.262 L 129.302 157.262 Z  M 146.2 162.1 L 150.5 156.1 L 167.8 168.6 L 174.1 159.9 L 156.8 147.4 L 161.1 141.4 L 205.3 173.4 L 201 179.4 L 179.1 163.6 L 172.8 172.3 L 194.7 188.1 L 190.4 194.1 L 146.2 162.1 L 146.2 162.1 Z " fill-rule="evenodd" fill="#535615"/><path d=" M 154.587 122.431 L 177.684 90.513 L 250.755 143.388 L 227.658 175.306 L 154.587 122.431 L 154.587 122.431 Z  M 196.1 134.1 C 197.8 131.8 198.4 129.8 198 128.1 C 197.5 126.4 195.9 124.5 193 122.5 C 188.2 119 184.6 119 182.1 122.5 L 181.8 123 L 181.6 123.3 C 181.5 123.5 181.4 123.6 181.4 123.6 L 196.1 134.1 L 196.1 134.1 L 196.1 134.1 Z  M 215.7 148.3 C 217.5 145.9 218.2 143.8 217.8 142.1 C 217.4 140.4 215.9 138.6 213.1 136.6 C 210.3 134.6 207.9 133.6 206.1 133.8 C 204.3 133.9 202.5 135.2 200.8 137.6 L 215.7 148.3 L 215.7 148.3 L 215.7 148.3 Z  M 172.6 125.6 L 178.4 117.5 C 183 111.2 189.2 110.9 197 116.5 C 200 118.7 201.9 120.7 202.8 122.6 C 203.7 124.5 203.7 126.7 202.9 129.3 C 205.6 127.6 208 126.9 210.1 127.1 C 212.2 127.3 214.8 128.4 217.7 130.6 C 225.8 136.5 227.4 142.9 222.3 149.8 L 216.7 157.6 L 172.6 125.6 L 172.6 125.6 L 172.6 125.6 Z " fill-rule="evenodd" fill="#535615"/><path d=" M 179.828 87.592 L 202.924 55.674 L 275.995 108.549 L 252.899 140.467 L 179.828 87.592 L 179.828 87.592 Z  M 231.6 94.2 C 223.9 88.7 218.6 85.3 215.6 84.2 C 212.6 83.1 210.3 83.6 208.8 85.7 C 207.3 87.8 207.4 90.1 209.2 92.4 C 211 94.8 215.5 98.5 222.5 103.6 C 229 108.3 233.7 111.2 236.7 112.2 C 239.6 113.2 241.8 112.6 243.3 110.6 C 244.8 108.6 244.6 106.4 243 104.1 C 241.3 101.7 237.6 98.4 231.6 94.2 L 231.6 94.2 L 231.6 94.2 Z  M 235.5 87.5 C 243.3 93.1 248.2 98 250.2 102.1 C 252.2 106.2 251.8 110.3 248.8 114.4 C 245.7 118.7 241.7 120.4 236.9 119.6 C 232.2 118.8 225.4 115.3 216.6 108.9 C 208.7 103.2 203.8 98.3 201.8 94.2 C 199.8 90.1 200.3 86 203.3 81.8 C 206 78.1 209.2 76.3 213.1 76.3 C 215.7 76.3 218.7 77.2 222.2 79 C 225.5 80.6 230 83.4 235.5 87.5 L 235.5 87.5 L 235.5 87.5 Z " fill-rule="evenodd" fill="#535615"/><path d=" M 205.122 52.717 L 228.218 20.799 L 301.289 73.674 L 278.193 105.592 L 205.122 52.717 L 205.122 52.717 Z  M 262.6 66.4 L 254.6 62.6 C 249.2 60 243.5 57 237.7 53.6 C 240.2 55.8 242.6 58.1 245 60.5 C 247.4 62.9 249.9 65.5 252.6 68.3 L 257.5 73.5 L 262.6 66.4 L 262.6 66.4 L 262.6 66.4 Z  M 227.5 49.7 L 230.9 45.1 L 282 67.5 L 277.7 73.4 L 267.9 68.8 L 261.6 77.6 L 269 85.5 L 264.9 91.2 L 227.5 49.7 L 227.5 49.7 L 227.5 49.7 Z " fill-rule="evenodd" fill="#535615"/><path d=" M 230.282 17.819 L 253.378 -14.099 L 326.449 38.776 L 303.353 70.694 L 230.282 17.819 L 230.282 17.819 Z  M 271.7 29.8 C 273.4 27.5 274 25.5 273.6 23.7 C 273.2 22 271.8 20.2 269.2 18.4 C 267.8 17.4 266.6 16.7 265.5 16.2 C 264.4 15.7 263.4 15.4 262.4 15.4 C 261.5 15.4 260.6 15.6 259.9 16.1 C 259.1 16.6 258.4 17.3 257.7 18.2 L 257 19.2 L 271.7 29.8 L 271.7 29.8 L 271.7 29.8 Z  M 247.9 21.6 L 253.6 13.8 C 255.9 10.6 258.5 8.7 261.2 8.2 C 264.7 7.6 268.4 8.9 272.6 11.8 C 275.8 14.1 277.9 16.5 279.1 18.9 C 280.2 21.3 280.3 23.7 279.4 26 L 306.8 33.4 L 302.4 39.4 L 274.7 32 L 296.3 47.7 L 292 53.7 L 247.9 21.6 L 247.9 21.6 L 247.9 21.6 Z " fill-rule="evenodd" fill="#535615"/><path d=" M 255.522 -17.021 L 278.619 -48.939 L 351.69 3.937 L 328.593 35.855 L 255.522 -17.021 L 255.522 -17.021 Z  M 315.4 10.4 C 318 6.8 318.7 3.6 317.4 0.7 C 316.1 -2.1 312.3 -5.9 306 -10.5 C 299.2 -15.4 294.1 -18.2 290.6 -18.9 C 287.2 -19.5 284.3 -18.3 282 -15.1 L 281.5 -14.4 L 315.4 10.4 L 315.4 10.4 L 315.4 10.4 Z  M 272.1 -11.9 L 277.4 -19.2 C 279 -21.4 280.6 -23.1 282.2 -24.3 C 283.7 -25.4 285.5 -26 287.5 -26.2 C 290.5 -26.5 293.8 -26 297.2 -24.6 C 300.6 -23.2 304.9 -20.7 310.2 -16.8 C 315.1 -13.3 318.8 -10 321.3 -7 C 323.7 -4.1 325 -1.2 325.3 1.6 C 325.7 5.2 323.8 9.7 319.8 15.3 L 316.3 20.1 L 272.1 -11.9 L 272.1 -11.9 L 272.1 -11.9 Z " fill-rule="evenodd" fill="#535615"/><g><path d=" M -20 310.5 L -14.2 302.4 L -12 304 L -14 306.8 L 2.2 318.6 L 0.5 321 L -15.7 309.2 L -17.8 312.1 L -20 310.5 L -20 310.5 Z " fill="#535615"/><path d=" M -15.1 299.9 L -13.5 297.6 L -4.2 304.4 C -4.8 303 -4.7 301.7 -4 300.7 C -3.3 299.7 -2.4 299.3 -1.3 299.4 C -0.7 299.5 0.3 300 1.5 300.9 L 10.3 307.3 L 8.6 309.6 L 0.3 303.6 C -0.5 303 -1.2 302.7 -1.7 302.6 C -2.2 302.5 -2.6 302.8 -3 303.2 C -3.2 303.5 -3.3 303.7 -3.3 304 C -3.3 304.2 -3.3 304.5 -3.2 304.8 C -3.1 305.1 -2.9 305.3 -2.6 305.6 C -2.3 305.9 -1.9 306.2 -1.5 306.5 L 6.5 312.3 L 4.9 314.6 L -15.1 299.9 L -15.1 299.9 Z " fill="#535615"/><path d=" M 11.7 296.9 L 13.2 294.8 C 16 297.1 16.6 299.3 15 301.5 C 14.5 302.2 14 302.6 13.4 302.9 C 12.8 303.2 12.1 303.3 11.4 303.2 C 10.7 303.1 9.8 302.9 8.9 302.5 C 8 302.1 7 301.5 5.9 300.7 C 3.7 299.1 2.3 297.7 1.7 296.3 C 1.1 294.9 1.2 293.6 2.2 292.3 C 4 289.8 7.1 290.2 11.4 293.3 L 11.7 293.5 L 7.9 298.7 C 10.5 300.6 12.2 301 13 300 C 13.7 299.1 13.3 298 11.7 296.9 Z  M 8.4 294.7 C 7 293.9 6.1 293.4 5.5 293.3 C 4.9 293.2 4.4 293.3 4.1 293.8 C 3.8 294.3 3.7 294.8 4.1 295.3 C 4.4 295.8 5.1 296.6 6.3 297.6 L 8.4 294.7 L 8.4 294.7 Z " fill="#535615"/><path d=" M 16.1 279 L 19.4 274.5 L 20.1 275 C 23.7 277.6 25.9 279.7 26.7 281.2 C 27.5 282.8 27.3 284.4 26.1 286.1 C 24.8 287.9 23.2 288.6 21.2 288.3 C 19.2 288 16.6 286.6 13.2 284.2 C 9.3 281.4 7.1 279.1 6.4 277.4 C 5.8 275.8 6 274.2 7.1 272.6 C 8 271.4 8.9 270.7 10 270.4 C 11.1 270.1 12.4 270.3 14.1 270.9 L 13.4 273.9 C 12.8 273.7 12.3 273.5 11.9 273.4 C 11.5 273.3 11.1 273.2 10.8 273.3 C 10.2 273.3 9.7 273.7 9.3 274.3 C 8.7 275 8.8 276 9.6 277 C 10.4 278.1 12.2 279.6 15 281.6 C 17.8 283.6 19.8 284.8 21 285.2 C 22.2 285.6 23.1 285.4 23.7 284.5 C 24.3 283.7 24.3 282.9 23.9 282.1 C 23.4 281.2 22.3 280.2 20.7 279 L 20.2 278.6 L 19.8 278.3 L 18.2 280.5 L 16.1 279 L 16.1 279 Z " fill="#535615"/><path d=" M 23.5 263.2 L 35.8 272.1 L 34.1 274.4 L 32.5 273.3 C 32.9 274.1 33.2 274.8 33.2 275.3 C 33.2 275.8 33 276.3 32.6 276.9 C 31.9 277.9 30.8 278.3 29.4 278 C 28 277.7 26.2 276.8 23.9 275.1 C 21.8 273.6 20.4 272.2 19.7 271 C 19 269.8 19.1 268.7 19.8 267.7 C 20.5 266.8 21.6 266.4 23 266.6 L 21.6 265.6 L 23.5 263.2 L 23.5 263.2 Z  M 25.9 272.8 C 27.5 274 28.7 274.7 29.5 274.9 C 30.3 275.1 30.9 275 31.3 274.4 C 31.7 273.9 31.6 273.3 31.1 272.6 C 30.5 271.9 29.5 270.9 28 269.9 C 26.5 268.8 25.3 268.1 24.4 267.8 C 23.6 267.5 23 267.7 22.6 268.2 C 22.2 268.7 22.2 269.4 22.7 270 C 23.3 270.7 24.3 271.6 25.9 272.8 Z " fill="#535615"/><path d=" M 25.4 260.6 L 27.1 258.3 L 28.6 259.4 C 27.9 257.9 27.9 256.7 28.7 255.6 C 29.5 254.5 30.7 254.1 32.1 254.5 C 31.4 253.1 31.4 251.8 32.2 250.7 C 32.8 249.8 33.5 249.3 34.3 249.2 C 35.1 249.1 35.9 249.3 36.8 250 L 46.6 257.1 L 44.9 259.4 L 36.8 253.5 C 35.9 252.8 35.2 252.5 34.7 252.4 C 34.3 252.3 33.9 252.5 33.5 253 C 33.1 253.6 33 254 33.2 254.5 C 33.4 254.9 33.9 255.5 34.9 256.1 L 43 262 L 41.3 264.4 L 33.2 258.5 C 32.8 258.2 32.4 257.9 32 257.8 C 31.7 257.6 31.4 257.5 31.1 257.5 C 30.8 257.5 30.6 257.5 30.4 257.6 C 30.2 257.7 30 257.9 29.8 258.1 C 29.4 258.6 29.3 259.1 29.5 259.6 C 29.7 260.1 30.2 260.6 31.1 261.3 L 39.2 267.2 L 37.5 269.5 L 25.4 260.6 L 25.4 260.6 Z " fill="#535615"/><path d=" M 47.8 246.9 L 49.3 244.8 C 52.1 247.1 52.7 249.3 51.1 251.5 C 50.6 252.2 50.1 252.6 49.5 252.9 C 48.9 253.2 48.2 253.3 47.5 253.2 C 46.8 253.1 45.9 252.9 45 252.5 C 44.1 252.1 43.1 251.5 42 250.7 C 39.8 249.1 38.4 247.7 37.8 246.3 C 37.2 244.9 37.3 243.6 38.3 242.3 C 40.1 239.8 43.2 240.2 47.5 243.3 L 47.8 243.5 L 44 248.7 C 46.6 250.6 48.3 251 49.1 250 C 49.9 249.1 49.4 248 47.8 246.9 Z  M 44.6 244.7 C 43.2 243.9 42.3 243.4 41.7 243.3 C 41.1 243.2 40.6 243.3 40.3 243.8 C 40 244.3 39.9 244.8 40.3 245.3 C 40.6 245.8 41.3 246.6 42.5 247.6 L 44.6 244.7 L 44.6 244.7 Z " fill="#535615"/><path d=" M 57.9 228.9 C 62.1 231.9 63.2 234.7 61.4 237.3 C 59.5 239.9 56.5 239.6 52.2 236.6 C 47.9 233.5 46.8 230.7 48.6 228.1 C 49.1 227.4 49.6 226.9 50.2 226.6 C 50.8 226.3 51.5 226.2 52.3 226.2 C 53.1 226.3 53.9 226.5 54.8 226.9 C 55.8 227.5 56.8 228.1 57.9 228.9 Z  M 56.2 231.2 C 54.6 230 53.4 229.3 52.6 229.1 C 51.8 228.8 51.2 229 50.8 229.5 C 50.4 230 50.4 230.7 50.9 231.3 C 51.4 232 52.4 232.9 54 234 C 55.6 235.1 56.8 235.8 57.5 236.1 C 58.3 236.3 58.9 236.2 59.3 235.6 C 59.7 235.1 59.7 234.5 59.2 233.8 C 58.8 233.3 57.8 232.4 56.2 231.2 Z " fill="#535615"/><path d=" M 52.6 223.1 L 53.4 222 L 49.1 218.9 C 47.7 217.9 46.8 217 46.6 216.1 C 46.3 215.3 46.6 214.3 47.3 213.3 C 47.6 212.9 48.1 212.4 48.7 212 L 51.1 213.7 C 50.6 213.9 50.3 214.2 50.1 214.4 C 49.8 214.8 49.7 215.1 49.8 215.5 C 49.9 215.8 50.2 216.2 50.8 216.6 L 51.7 217.3 L 55 219.7 L 56.4 217.8 L 58.2 219.1 L 56.8 221 L 67.3 228.6 L 65.7 230.9 L 55.2 223.3 L 54.4 224.4 L 52.6 223.1 L 52.6 223.1 Z " fill="#535615"/></g><g><path d=" M 279.8 -51 L 282.1 -54.2 L 283 -53.6 L 282.2 -52.5 L 288.7 -47.8 L 288 -46.8 L 281.5 -51.5 L 280.7 -50.4 L 279.8 -51 L 279.8 -51 Z " fill="#535615"/><path d=" M 282.8 -55.1 L 283.4 -55.9 L 286.9 -54.4 C 287.3 -54.2 287.8 -54 288.2 -53.8 C 288.6 -53.6 289.1 -53.4 289.5 -53.1 L 289.4 -53.2 C 289.4 -53.2 289.4 -53.2 289.3 -53.3 L 288.6 -54 L 287.9 -54.7 L 287.5 -55.2 L 285 -57.9 L 285.6 -58.8 L 293.5 -54.1 L 292.8 -53.2 L 290.2 -54.8 C 290.1 -54.9 290 -55 289.9 -55 C 289.8 -55.1 289.7 -55.1 289.7 -55.2 L 288.7 -55.9 L 287.8 -56.5 L 287.8 -56.5 C 287.8 -56.5 287.8 -56.5 287.7 -56.6 L 287.8 -56.5 C 288 -56.3 288.1 -56.2 288.2 -56.1 C 288.3 -56 288.4 -55.9 288.5 -55.8 L 289.1 -55.2 L 289.3 -55 L 292.1 -52.1 L 291.6 -51.4 L 288.4 -52.8 C 288 -53 287.6 -53.2 287.1 -53.4 C 286.7 -53.6 286.2 -53.8 285.8 -54.1 L 290.7 -50.1 L 290 -49.2 L 282.8 -55.1 L 282.8 -55.1 Z " fill="#535615"/></g><path d=" M 28.507 296.691 L 51.603 264.773 L 124.674 317.648 L 101.578 349.566 L 28.507 296.691 L 28.507 296.691 Z  M 60.1 283.9 C 60.1 283.9 84.9 304.1 86.2 305.2 L 90.7 308.6 C 90.8 308.7 90.9 308.8 91.2 309 C 91.4 309.2 91.7 309.5 92.1 309.8 L 90.6 308.9 C 87.9 307.3 85.5 305.9 83.2 304.6 C 80.9 303.3 78.8 302.2 76.8 301.2 L 57 289.9 L 56.9 290 L 53.7 294.5 L 53.6 294.6 L 70.6 309.9 C 72.2 311.5 73.9 313.2 75.8 314.9 C 77.7 316.7 79.8 318.6 82.2 320.6 L 83.5 321.8 C 83.1 321.6 82.8 321.4 82.5 321.2 C 82.2 321 82.1 320.9 81.9 320.9 L 77.3 317.7 C 75.9 316.8 49 299.6 49 299.6 L 44.8 305.4 L 92.6 332.4 L 96.1 327.6 L 78.7 311 C 78.6 310.9 66.4 300.5 66.4 300.5 C 66.4 300.5 77.8 307.7 80 309.1 L 101.3 320 L 104.8 315.2 L 64.2 278.3 L 60.1 283.9 L 60.1 283.9 Z " fill-rule="evenodd" fill="#535615"/></g></g></g></g></svg>